<svg id="Layer_1" data-name="Layer 1" xmlns="http://www.w3.org/2000/svg" viewBox="0 0 100 100"><defs><style>.cls-1{fill:#142e52;stroke:#f9ad6e;stroke-miterlimit:10;stroke-width:4px;}.cls-2{fill:none;}.cls-3{fill:#fff;}</style></defs><title>icon</title><circle class="cls-1" cx="50" cy="50" r="46.72"/><path class="cls-2" d="M29.51,55.21a.92.92,0,0,0-1.18,1,.92.92,0,0,0,.4.68L34,60.54c.6-1.24,1.21-2.41,1.81-3.47Z"/><path class="cls-2" d="M44.07,69.76l-1.86-6.33c-1.07.6-2.23,1.2-3.47,1.8l3.68,5.32a.9.9,0,0,0,.67.39.88.88,0,0,0,.74-.27A.93.93,0,0,0,44.07,69.76Z"/><path class="cls-2" d="M64.21,49.57l.29,1.74,3.11-3.12a.71.71,0,0,0-1-1Z"/><path class="cls-2" d="M52.09,31.66a.73.73,0,0,0-1,0h0L48,34.78l1.73.28,2.39-2.39A.71.71,0,0,0,52.09,31.66Z"/><path class="cls-2" d="M65.18,69.4,61.37,46,52.3,55l11,15.17a1.1,1.1,0,0,0,.77.43,1.08,1.08,0,0,0,.84-.31A1,1,0,0,0,65.18,69.4Z"/><path class="cls-2" d="M69,30.28a6.2,6.2,0,0,1,1.44,2.25c.8-1.76.89-3.24.22-3.91s-2.46-.43-3.9.22A6.16,6.16,0,0,1,69,30.28Z"/><path class="cls-2" d="M28.65,35.22a1.07,1.07,0,0,0,.44.77L44.26,47l9.06-9.06L29.88,34.09h-.17a1.06,1.06,0,0,0-1.06,1.14Z"/><path class="cls-2" d="M63.88,30.64l0,0c-.73.59-.73.59-5.32,5.19-3.07,3.08-8.19,8.22-17,16.95A22.06,22.06,0,0,0,38.47,57a66,66,0,0,0-3.88,7.68,65.6,65.6,0,0,0,7.54-3.79,23,23,0,0,0,4.34-3.2C55.19,49,60.32,43.84,63.4,40.76,68,36.15,68,36.15,68.61,35.42l0,0a4.26,4.26,0,0,0-4.75-4.75ZM49.79,51.06a1.11,1.11,0,0,1-.79.33h0a1.13,1.13,0,0,1-.79-.33,1.14,1.14,0,0,1,0-1.58,1.12,1.12,0,0,1,.79-.32h0a1.11,1.11,0,0,1,.79,1.9ZM55,45.89l-2.58,2.58a1.12,1.12,0,0,1-.79.33,1.11,1.11,0,0,1-.79-1.9l2.59-2.59A1.11,1.11,0,0,1,55,45.89Zm5.18-5.18L57.55,43.3a1.11,1.11,0,0,1-.79.33A1.12,1.12,0,0,1,56,41.72l2.59-2.58a1.11,1.11,0,0,1,.79-.33h0a1.12,1.12,0,0,1,.79,1.9Z"/><path class="cls-3" d="M49.51,49.77a.71.71,0,0,0-.51-.21h0a.72.72,0,0,0-.71.71A.72.72,0,0,0,49,51h0a.72.72,0,0,0,.72-.72A.71.71,0,0,0,49.51,49.77Z"/><path class="cls-3" d="M70.28,36.26c2.76-3.58,3.43-7.16,1.66-8.93S66.59,26.23,63,29a29.84,29.84,0,0,0-3.34,3.13c-1,1-2.27,2.29-4.21,4.2l-.07.07-3.82-.62L53.39,34a2.54,2.54,0,1,0-3.6-3.59l-4.4,4.39L30.17,32.29A2.88,2.88,0,0,0,28,37.47L43.28,48.52l-3,3a22.32,22.32,0,0,0-3,3.92l-.08.13L30,53.45a2.75,2.75,0,0,0-3.52,2.89,2.73,2.73,0,0,0,1.18,2l5.89,4.08-.06.16c-1,2.26-1.63,3.86-1.64,3.87a.71.71,0,0,0,.92.92s1.61-.6,3.88-1.63l.15-.07,4.08,5.9a2.76,2.76,0,0,0,2,1.17,2.73,2.73,0,0,0,2.2-.79,2.76,2.76,0,0,0,.69-2.73l-2.11-7.17.13-.08a22.82,22.82,0,0,0,3.92-3l3-3,11,15.26a2.9,2.9,0,0,0,4.38.35A2.94,2.94,0,0,0,67,69.1L64.51,53.88l4.4-4.4a2.54,2.54,0,0,0-3.6-3.59l-1.81,1.8-.62-3.82L63,43.8c1.92-1.94,3.24-3.25,4.21-4.21A31.61,31.61,0,0,0,70.28,36.26ZM66.12,28.7c.81-.41,3.53-1.64,4.81-.36.87.86.73,2.66-.36,4.81l-.23.45-.14-.48a5.81,5.81,0,0,0-4-4l-.49-.14ZM50.8,31.38a1.15,1.15,0,0,1,1.58,0,1.12,1.12,0,0,1,0,1.57l-2.54,2.54-2.71-.44ZM28.85,36.31a1.48,1.48,0,0,1-.6-1.06,1.46,1.46,0,0,1,.43-1.15,1.44,1.44,0,0,1,1.26-.4l24.22,3.94L44.3,47.5l-.14-.1ZM28.5,57.19a1.33,1.33,0,0,1,1.13-2.37l6.81,2-.12.22c-.67,1.17-1.35,2.47-2,3.87l-.1.21Zm16,12.46a1.32,1.32,0,0,1-1.27,1.7h-.12a1.31,1.31,0,0,1-1-.56l-4-5.7.21-.11c1.4-.67,2.7-1.35,3.88-2l.22-.13ZM66.32,46.9a1.11,1.11,0,0,1,1.58,1.57l-3.67,3.67-.44-2.71Zm-.74,22.43A1.45,1.45,0,0,1,64.14,71H64a1.47,1.47,0,0,1-1.06-.6L51.77,55l.12-.13,9.74-9.73Zm-1.9-28.28C60.6,44.12,55.47,49.24,46.75,58a23.86,23.86,0,0,1-4.41,3.26,68.46,68.46,0,0,1-8.05,4l-.46.2L34,65a66.27,66.27,0,0,1,4.1-8.19,22.79,22.79,0,0,1,3.17-4.27l17-17C62.86,31,62.86,31,63.6,30.35l.13-.1h.07A4.67,4.67,0,0,1,69,35.48v.06l-.11.13C68.32,36.42,68.32,36.42,63.68,41.05Z"/><path class="cls-3" d="M54.68,44.59a.71.71,0,0,0-1,0l-2.59,2.59a.71.71,0,0,0-.21.5.74.74,0,0,0,.21.51.71.71,0,0,0,1,0l2.59-2.59A.71.71,0,0,0,54.68,44.59Z"/><path class="cls-3" d="M59.85,39.42a.71.71,0,0,0-.5-.21h0a.75.75,0,0,0-.51.21h0L56.26,42a.71.71,0,0,0,1,1l2.58-2.59A.71.71,0,0,0,59.85,39.42Z"/></svg>