<svg id="Layer_1" data-name="Layer 1" xmlns="http://www.w3.org/2000/svg" viewBox="0 0 100 100"><defs><style>.cls-1{fill:#142e52;stroke:#f9ad6e;stroke-miterlimit:10;stroke-width:4px;}.cls-2{fill:none;}.cls-3{fill:#fff;}</style></defs><title>icon</title><circle class="cls-1" cx="50" cy="50" r="46.72"/><path class="cls-2" d="M61.81,60.49a3.57,3.57,0,0,1,.12-.92l-34.5.06a4,4,0,0,1,.27,1.44A4,4,0,0,1,26.45,64L29.6,65.5a4.16,4.16,0,0,1-.2-1.27,4.27,4.27,0,1,1,8.53,0,4.32,4.32,0,0,1-.34,1.66H41a3.38,3.38,0,0,1-.19-1.15,3.75,3.75,0,1,1,7.49,0,3.64,3.64,0,0,1-.18,1.15h4a4.32,4.32,0,0,1-.42-1.85,4.46,4.46,0,1,1,8.91,0,4.27,4.27,0,0,1-.39,1.77,3.89,3.89,0,0,0,1.89-1l1.37-1.32A3.56,3.56,0,0,1,61.81,60.49Z"/><path class="cls-2" d="M45.92,40a.19.19,0,0,0-.18-.19h-5.2a.19.19,0,0,0-.18.19v.41h5.56Z"/><path class="cls-2" d="M66.28,60.49a.94.94,0,1,0-.94.94A.94.94,0,0,0,66.28,60.49Z"/><path class="cls-2" d="M56.18,65.9A1.86,1.86,0,1,0,54.32,64a1.86,1.86,0,0,0,1.86,1.86v.25h0Z"/><path class="cls-2" d="M33.67,65.9A1.67,1.67,0,1,0,32,64.23a1.66,1.66,0,0,0,1.67,1.67v.25h0Z"/><path class="cls-2" d="M44.55,65.9a1.15,1.15,0,1,0-1.15-1.15,1.16,1.16,0,0,0,1.15,1.15v.25h0Z"/><path class="cls-2" d="M25.1,61.07a1.44,1.44,0,1,0-1.43,1.43A1.43,1.43,0,0,0,25.1,61.07Z"/><path class="cls-2" d="M46.58,43.05H39.06a5.89,5.89,0,0,0-5.89,5.89V49h19.3v-.06a5.89,5.89,0,0,0-5.89-5.89Z"/><path class="cls-2" d="M54,44.87c.09.16.18.33.26.5l16.58-6.84L70.65,38Z"/><rect class="cls-2" x="72.97" y="35.21" width="5.08" height="2.22" transform="translate(-8.14 31.54) rotate(-22.42)"/><polygon class="cls-2" points="57.94 53.29 55.8 51.6 27.01 51.6 26.12 53.29 57.94 53.29"/><path class="cls-3" d="M68.38,60.49a3,3,0,0,0-3-3l-41.67.08a3.53,3.53,0,0,0-1.28,6.83l6.45,3.1a6.79,6.79,0,0,0,2.63.53h28a5.94,5.94,0,0,0,4.12-1.66L67.1,63A3.07,3.07,0,0,0,68.38,60.49ZM23.67,63a1.93,1.93,0,1,1,1.93-1.93A1.93,1.93,0,0,1,23.67,63Zm10,3.4h0a2.17,2.17,0,1,1,2.17-2.17A2.17,2.17,0,0,1,33.66,66.4Zm10.88,0h0a1.65,1.65,0,1,1,1.66-1.65A1.66,1.66,0,0,1,44.54,66.4Zm11.63,0h0A2.36,2.36,0,1,1,58.53,64,2.36,2.36,0,0,1,56.17,66.4Zm6.3-1.21a4.37,4.37,0,0,1-2.68,1.19l-.49,0,.26-.42a3.66,3.66,0,0,0,.56-2,4,4,0,1,0-7.91,0,3.59,3.59,0,0,0,.56,2l.24.39H47.34l.17-.36a2.93,2.93,0,0,0,.28-1.29,3.25,3.25,0,1,0-6.49,0A2.93,2.93,0,0,0,41.58,66l.17.36h-5L37,66a3.76,3.76,0,1,0-7.07-1.8,3.67,3.67,0,0,0,.36,1.6l.24.51L30,66.18,29.52,66l-4-1.92.31-.25a3.52,3.52,0,0,0,1.36-2.78,3.55,3.55,0,0,0-.37-1.57l-.19-.36,36-.08-.13.35A3,3,0,0,0,64,63.23l.33.16Zm2.86-3.26a1.44,1.44,0,1,1,1.44-1.44A1.43,1.43,0,0,1,65.34,61.93Z"/><path class="cls-3" d="M80.71,36.78h0l-1.83-4.46a.82.82,0,0,0-.43-.43.83.83,0,0,0-.62,0l-7.09,2.92a.82.82,0,0,0-.49.88l0,.2-18,7.43-.12-.11a7.94,7.94,0,0,0-3.92-2.09l-.2,0V40a2.29,2.29,0,0,0-2.28-2.29h-5.2A2.29,2.29,0,0,0,38.26,40v1L38,41a8,8,0,0,0-7,7.92v.56H26.22a.77.77,0,0,0-.7.42L23.35,54l-.11,0a11.37,11.37,0,0,0-2.14.69l-1.39.59a.8.8,0,0,0-.42,1,.78.78,0,0,0,.44.43.76.76,0,0,0,.61,0l1.39-.59a10.18,10.18,0,0,1,4-.83H65.93L68.29,57a.82.82,0,0,0,1.11-.22.8.8,0,0,0-.21-1.11l-2.57-1.74a.79.79,0,0,0-.45-.13H62l-5.2-4.12a.79.79,0,0,0-.49-.17H54.57v-.56a9.36,9.36,0,0,0-.08-1.18l0-.19,17.65-7.28.11.17a.82.82,0,0,0,1,.29l7.1-2.93a.79.79,0,0,0,.43-.43A.72.72,0,0,0,80.71,36.78ZM39.86,40a.69.69,0,0,1,.68-.69h5.2a.68.68,0,0,1,.68.69V41H39.86Zm-7.19,8.9a6.38,6.38,0,0,1,6.39-6.39h7.52A6.38,6.38,0,0,1,53,48.94v.56H32.67ZM56,51.1l3.4,2.69H25.29l1.42-2.69ZM54,46l-.09-.23a8.82,8.82,0,0,0-.47-.92l-.15-.25,17.61-7.26.6,1.45ZM73.31,39l-1.22-3,5.62-2.32,1.22,3Z"/></svg>