<svg id="Layer_1" data-name="Layer 1" xmlns="http://www.w3.org/2000/svg" viewBox="0 0 100 100"><defs><style>.cls-1{fill:#142e52;stroke:#f9ad6e;stroke-miterlimit:10;stroke-width:4px;}.cls-2{fill:#fff;}</style></defs><title>icon</title><circle class="cls-1" cx="50" cy="50" r="46.72"/><path class="cls-2" d="M68.65,58.76c-1.22-1-3-2.26-5.29-3.82C59.5,52.3,55.14,49.52,52.73,48c-.09-2.45-.32-7.81-.68-12.57-.21-2.79-.43-5-.67-6.55-.38-2.57-.77-3.39-1.57-3.39s-1.23,1.13-1.57,3.35c-.23,1.54-.46,3.72-.67,6.48C47.22,40,47,45.16,46.88,48c-2.07,1.31-6.62,4.2-10.56,6.89C34,56.46,32.22,57.76,31,58.74c-2,1.61-2.55,2.36-2.14,3a.91.91,0,0,0,.9.47,9,9,0,0,0,2.8-.79C34,60.9,36,60,38.52,58.79c3.36-1.61,6.95-3.45,9.54-4.81L46.82,73.14a.73.73,0,0,0,.67.76h0a.71.71,0,0,0,.71-.67l1.29-20,.14-.07a.37.37,0,0,1,.14-.07s.09,0,.12.06l.15.08,1.29,20a.72.72,0,0,0,.71.67h.05a.71.71,0,0,0,.66-.76L51.55,54c1.5.78,3.33,1.73,5.27,2.71a.72.72,0,0,0,1-.38.7.7,0,0,0-.34-.89c-2.33-1.18-4.51-2.31-6.14-3.16a3,3,0,0,0,1.47-2.54c2.31,1.46,5.85,3.73,9.13,6a77.33,77.33,0,0,1,6.62,4.84A86.69,86.69,0,0,1,60,56.68.71.71,0,0,0,59.38,58c2.94,1.44,5.31,2.54,7.05,3.25a10.84,10.84,0,0,0,3.44,1,.93.93,0,0,0,.9-.47C71.22,61,70.41,60.16,68.65,58.76ZM49.81,28.07a78.15,78.15,0,0,1,.88,8.25c.28,3.91.47,8,.58,10.77a3,3,0,0,0-1.46-.38,3.06,3.06,0,0,0-1.47.38c.11-2.73.31-6.93.59-10.88A76.3,76.3,0,0,1,49.81,28.07ZM31.08,60.51a78.23,78.23,0,0,1,6.69-4.88c3.25-2.21,6.75-4.45,9-5.91a3,3,0,0,0,1.47,2.54c-2.42,1.27-6.13,3.19-9.68,4.91A79,79,0,0,1,31.08,60.51Zm18.73-9.25a1.57,1.57,0,1,1,0-3.13,1.57,1.57,0,0,1,0,3.13Z"/><path class="cls-2" d="M57.38,28.3a.7.7,0,0,0-.9.43.71.71,0,0,0,.43.91,21.31,21.31,0,0,1,14.17,20,21.68,21.68,0,0,1-.29,3.51.7.7,0,0,0,.58.82h.12a.71.71,0,0,0,.7-.59,23.62,23.62,0,0,0,.31-3.75A22.74,22.74,0,0,0,57.38,28.3Z"/><path class="cls-2" d="M55.39,33.93A16.75,16.75,0,0,1,66.53,49.69a17,17,0,0,1-.23,2.76.71.71,0,0,0,.58.82H67a.72.72,0,0,0,.7-.59,17.78,17.78,0,0,0,.25-3,18.18,18.18,0,0,0-12.08-17.1.71.71,0,0,0-.48,1.34Z"/><path class="cls-2" d="M53.87,38.21a12.23,12.23,0,0,1,8,13.49.7.7,0,0,0,.58.82h.12a.72.72,0,0,0,.7-.59,14.13,14.13,0,0,0,.18-2.25,13.6,13.6,0,0,0-9-12.81.71.71,0,1,0-.48,1.33Z"/><path class="cls-2" d="M28.89,53.57a21.32,21.32,0,0,1,10.28-22.3,22.08,22.08,0,0,1,3.19-1.5.71.71,0,1,0-.5-1.33,23.43,23.43,0,0,0-3.4,1.6,22.76,22.76,0,0,0-11,23.79.72.72,0,0,0,.7.58h.13A.72.72,0,0,0,28.89,53.57Z"/><path class="cls-2" d="M32,53a.71.71,0,0,0,.69.58h.13a.7.7,0,0,0,.57-.83A16.74,16.74,0,0,1,44,34a.71.71,0,1,0-.5-1.33A18.15,18.15,0,0,0,32,53Z"/><path class="cls-2" d="M36.44,52.17a.71.71,0,0,0,.7.58h.13a.72.72,0,0,0,.57-.83,12.18,12.18,0,0,1,5.88-12.76,11.3,11.3,0,0,1,1.83-.86.72.72,0,0,0,.41-.92.71.71,0,0,0-.91-.41,12.66,12.66,0,0,0-2,1A13.61,13.61,0,0,0,36.44,52.17Z"/></svg>