<svg id="Layer_1" data-name="Layer 1" xmlns="http://www.w3.org/2000/svg" viewBox="0 0 100 100"><defs><style>.cls-1{fill:#142e52;stroke:#f9ad6e;stroke-miterlimit:10;stroke-width:4px;}.cls-2{fill:none;}.cls-3{fill:#fff;}</style></defs><title>icon</title><circle class="cls-1" cx="50" cy="50" r="46.72"/><path class="cls-2" d="M69.62,50.39a4.11,4.11,0,0,0-.77-.08,3.82,3.82,0,0,0-.76,7.56A3.82,3.82,0,0,0,71,57.31a3.76,3.76,0,0,0,1.63-2.42,3.8,3.8,0,0,0-3-4.5Z"/><path class="cls-2" d="M54.82,37.74h-.25v3.45H65.12l1.32-1.32A32.72,32.72,0,0,0,54.82,37.74Z"/><path class="cls-2" d="M51.72,41.19V37.81a33.39,33.39,0,0,0-12.84,3.38Z"/><path class="cls-2" d="M22.2,47a2.31,2.31,0,0,0-1.15,2v4.79H22.4a6.66,6.66,0,0,1,13.3,0h16V44H33.24A22.29,22.29,0,0,0,22.2,47Zm22.19-2.63h4.94v2.84H44.39Z"/><path class="cls-2" d="M79,51.09V47.17H75.81V44.33H79v-.49L72.84,43a1.52,1.52,0,0,1-.55-.2,32.21,32.21,0,0,0-3-1.69l-2.53,2.53a1.42,1.42,0,0,1-1,.42H54.57v9.72h7.64a6.68,6.68,0,0,1,6.65-6.28c.23,0,.45,0,.67,0l.17,0,.18,0,.31.05.16,0,.19,0,.29.08.18.06.19.07.24.09.18.09.18.08.22.11.28.16.12.08.15.09.2.15.12.09a1.33,1.33,0,0,1,.19.14l.24.22a1.77,1.77,0,0,1,.23.21l.13.14.08.09.22.23c.06.07.11.15.16.22l.22.29a2.38,2.38,0,0,1,.18.3l.07.09.09.16.1.2,0,.09a2.7,2.7,0,0,1,.15.3l.1.29a3.16,3.16,0,0,1,.11.31l.06.21,0,.1c0,.14.06.23.08.31a2,2,0,0,1,0,.24l0,.19c0,.08,0,.16,0,.24v.1l2.52-1A1.47,1.47,0,0,0,79,51.09Z"/><path class="cls-2" d="M29.81,50.39a3.92,3.92,0,0,0-.76-.08,3.84,3.84,0,1,0,.76.08Z"/><rect class="cls-3" x="45.14" y="45.08" width="3.44" height="1.35"/><path class="cls-3" d="M81.05,51.09V42.61a.68.68,0,0,0-.58-.67l-7.26-1.07a36.12,36.12,0,0,0-4-2.11,34.66,34.66,0,0,0-14.39-3.11H53.55a35.28,35.28,0,0,0-16.82,4.29l-3.77,2a24.55,24.55,0,0,0-11.8,3.2A4.42,4.42,0,0,0,19,49v6.22a.67.67,0,0,0,.67.67h3.79l.08.25a5.89,5.89,0,0,0,11.12,0l.08-.25H63.21l.09.25a5.89,5.89,0,0,0,11.11,0l.09-.25h.64a.7.7,0,0,0,.25-.05l3.39-1.36A3.57,3.57,0,0,0,81.05,51.09ZM33.52,55a4.56,4.56,0,0,1-4.46,3.66,4.71,4.71,0,0,1-.92-.1,4.56,4.56,0,0,1-3.56-5.39,4.57,4.57,0,0,1,9,.92A4.61,4.61,0,0,1,33.52,55Zm18.95-.54H35v-.37a5.91,5.91,0,1,0-11.82,0v.37H20.3V49a3.07,3.07,0,0,1,1.53-2.65,23,23,0,0,1,11.41-3H52.47Zm0-12.56H35.88l1.49-.82A34,34,0,0,1,52.08,37l.39,0ZM53.82,37h1a33.51,33.51,0,0,1,12.43,2.39l.53.21-2.35,2.35H53.82ZM73.33,55a4.58,4.58,0,0,1-4.47,3.66,4.88,4.88,0,0,1-.92-.1,4.56,4.56,0,1,1,1.83-8.94A4.57,4.57,0,0,1,73.33,55Zm1.43-.44v-.55a.86.86,0,0,0,0-.16l0-.41,0-.19,0-.2c0-.06,0-.13,0-.18l-.06-.24,0-.16a.75.75,0,0,0,0-.16c0-.07,0-.13-.07-.19l0-.09-.1-.28a1.09,1.09,0,0,0-.08-.15l-.09-.19L74,51.29,73.89,51a1.5,1.5,0,0,0-.15-.23l-.16-.23-.18-.23-.17-.18L73,49.94a1.42,1.42,0,0,0-.13-.12l-.29-.27-.14-.1-.08-.06-.23-.17L72,49.15l-.16-.09-.21-.13-.18-.09-.2-.09-.14-.07-.2-.07-.35-.13-.23-.06L70,48.34l-.26,0-.32,0A5.92,5.92,0,0,0,63,54.13v.37H53.82V43.28H65.71a.67.67,0,0,0,.48-.2l2.9-2.9.24.11a35.25,35.25,0,0,1,3.36,1.84.82.82,0,0,0,.26.1l6.75,1v1.89H76.56v1.34H79.7v4.67a2.22,2.22,0,0,1-1.42,2.1Z"/></svg>