<svg id="Layer_1" data-name="Layer 1" xmlns="http://www.w3.org/2000/svg" viewBox="0 0 100 100"><defs><style>.cls-1{fill:#142e52;stroke:#f9ad6e;stroke-miterlimit:10;stroke-width:4px;}.cls-2{fill:none;}.cls-3{fill:#fff;}</style></defs><title>icon</title><circle class="cls-1" cx="50" cy="50" r="46.72"/><path class="cls-2" d="M38.17,43.48H29V70h9.18ZM36.89,68.75H30.27v-5h6.62Zm0-6.32H30.27v-5h6.62Zm0-6.31H30.27v-5h6.62Zm0-6.32H30.27v-5h6.62Z"/><rect class="cls-2" x="32.15" y="46.64" width="2.86" height="1.28"/><rect class="cls-2" x="63.74" y="52.96" width="2.86" height="1.28"/><rect class="cls-2" x="32.15" y="52.96" width="2.86" height="1.28"/><rect class="cls-2" x="50.31" y="56.12" width="3.65" height="13.91"/><rect class="cls-2" x="63.74" y="65.59" width="2.86" height="1.28"/><polygon class="cls-2" points="47.94 41.6 50.8 41.6 50.8 36.86 55.54 36.86 55.54 34 50.8 34 50.8 29.27 47.94 29.27 47.94 34 43.2 34 43.2 36.86 47.94 36.86 47.94 41.6"/><rect class="cls-2" x="44.78" y="56.12" width="3.65" height="13.91"/><rect class="cls-2" x="63.74" y="59.28" width="2.86" height="1.28"/><rect class="cls-2" x="32.15" y="59.28" width="2.86" height="1.28"/><path class="cls-2" d="M42.9,54.24H55.84V70H58.7V26.11H40.05V70H42.9ZM41.32,32.12h4.74V27.39h6.62v4.73h4.74v6.62H52.68v4.74H46.06V38.74H41.32Z"/><path class="cls-2" d="M69.75,43.48H60.58V70h9.17ZM68.48,68.75H61.86v-5h6.62Zm0-6.32H61.86v-5h6.62Zm0-6.31H61.86v-5h6.62Zm0-6.32H61.86v-5h6.62Z"/><rect class="cls-2" x="63.74" y="46.64" width="2.86" height="1.28"/><rect class="cls-2" x="32.15" y="65.59" width="2.86" height="1.28"/><path class="cls-3" d="M68.17,45.06h-6V49.5h6ZM66.9,48.22H63.44V46.34H66.9Z"/><path class="cls-3" d="M68.17,51.38h-6v4.44h6ZM66.9,54.54H63.44V52.66H66.9Z"/><path class="cls-3" d="M68.17,57.7h-6v4.43h6ZM66.9,60.85H63.44V59H66.9Z"/><path class="cls-3" d="M68.17,64h-6v4.44h6ZM66.9,67.17H63.44V65.29H66.9Z"/><path class="cls-3" d="M46.36,43.18h6V38.44h4.74v-6H52.38V27.69h-6v4.73H41.62v6h4.74Zm-3.46-6V33.7h4.74V29H51.1V33.7h4.74v3.46H51.1V41.9H47.64V37.16Z"/><path class="cls-3" d="M60.28,24.53H38.47V41.9H27.41V71.61H71.33V41.9h-11ZM38.47,70.33H28.69V43.18h9.78Zm10.26,0H44.48V55.82h4.25Zm5.53,0H50V55.82h4.25Zm4.74,0H55.54V54.54H43.2V70.33H39.75V25.81H59Zm11-27.15V70.33H60.28V43.18Z"/><path class="cls-3" d="M36.59,45.06h-6V49.5h6Zm-1.28,3.16H31.85V46.34h3.46Z"/><path class="cls-3" d="M36.59,51.38h-6v4.44h6Zm-1.28,3.16H31.85V52.66h3.46Z"/><path class="cls-3" d="M36.59,57.7h-6v4.43h6Zm-1.28,3.15H31.85V59h3.46Z"/><path class="cls-3" d="M36.59,64h-6v4.44h6Zm-1.28,3.16H31.85V65.29h3.46Z"/></svg>