<svg id="Layer_1" data-name="Layer 1" xmlns="http://www.w3.org/2000/svg" viewBox="0 0 100 100"><defs><style>.cls-1{fill:#142e52;stroke:#f9ad6e;stroke-miterlimit:10;stroke-width:4px;}.cls-2{fill:none;}.cls-3{fill:#fff;}</style></defs><title>icon</title><circle class="cls-1" cx="50" cy="50" r="46.72"/><path class="cls-2" d="M33.05,38.21a3.34,3.34,0,0,1-.22-1,12.89,12.89,0,0,0-2.63,2.25A5.42,5.42,0,0,0,33.05,38.21Z"/><path class="cls-2" d="M37.6,55.65l-1.59.5a3.44,3.44,0,0,1-6.75-.92A3.47,3.47,0,0,1,31.52,52l.15-1.58a4.91,4.91,0,0,0,1,9.72A4.9,4.9,0,0,0,37.6,55.65Z"/><path class="cls-2" d="M38.43,39.92a.39.39,0,0,0,.28.17l2.54.35a.39.39,0,0,0,.31-.08l1.31-1.07-4.24-.6-.25.91A.4.4,0,0,0,38.43,39.92Z"/><path class="cls-2" d="M35.17,37.54a.36.36,0,0,0,.36-.35V34.4a.36.36,0,0,0-.71,0v2.79A.36.36,0,0,0,35.17,37.54Z"/><polygon class="cls-2" points="24.49 50.82 24.4 50.64 24.4 50.64 24.49 50.82"/><path class="cls-2" d="M24.57,50.56,30.1,48l-2.24-.87A6.77,6.77,0,0,0,24.57,50.56Z"/><path class="cls-2" d="M66.89,42.51a8.29,8.29,0,0,1-.75.69H67a4.81,4.81,0,0,0,4.17-2.42l.7-1.22a7.07,7.07,0,0,1,2-2.2l.3-.22-2.3-.56a3.55,3.55,0,0,0-2.78.49A7.48,7.48,0,0,1,66.89,42.51Z"/><path class="cls-2" d="M64.62,55.58h1a3.66,3.66,0,0,0,2.69-1.18l.71-.78a0,0,0,0,0,0-.07s0,0,0,0H64.05a6.34,6.34,0,0,1-.3.83A2.54,2.54,0,0,1,64.62,55.58Z"/><path class="cls-2" d="M31.26,55.08v.15a1.45,1.45,0,0,0,.89,1.33L32,56.47A2.09,2.09,0,0,1,31.26,55.08Z"/><path class="cls-2" d="M53.33,47a.63.63,0,0,0,.27.52l1.1.74a5.52,5.52,0,0,1,9,1.46,12.5,12.5,0,0,0,4-4.57,6.47,6.47,0,0,1-.76.05H55.46c-.22.14-1.2.82-1.87,1.29A.57.57,0,0,0,53.33,47Z"/><path class="cls-2" d="M67.46,60.14a4.92,4.92,0,1,0,0-9.83,5.28,5.28,0,0,0-1.52.2c-.4.33-.82.67-1.27,1H69a2.07,2.07,0,0,1,1.84,3,3.55,3.55,0,0,1,.08.73A3.43,3.43,0,0,1,65,57.58h-.22v.09a2.54,2.54,0,0,1-.4,1.36A4.92,4.92,0,0,0,67.46,60.14Z"/><path class="cls-2" d="M62.24,52.05a3.52,3.52,0,0,0-5.85-2.65l3,2.06a2.75,2.75,0,0,1,.75,3.79l0,0A3.52,3.52,0,0,0,62.24,52.05Z"/><path class="cls-2" d="M68.84,47.33a12.5,12.5,0,0,1-.75,1,6.91,6.91,0,0,1-.63,13.8,7,7,0,0,1-4.83-2,3.13,3.13,0,0,1-.44,0h-1a8,8,0,1,0,7.66-12.89Z"/><path class="cls-2" d="M52.48,49.17a2.63,2.63,0,0,1,0-4.32l6.18-4.34a.14.14,0,0,0,.07-.17.14.14,0,0,0-.15-.12l-11.72-.9a1.85,1.85,0,0,0-1.34.42l-2.66,2.17a2.43,2.43,0,0,1-1.84.51l-2.54-.35a2.37,2.37,0,0,1-1.68-1,2.42,2.42,0,0,1-.32-1.89,2.85,2.85,0,0,1-1.8.34,8.09,8.09,0,0,1-5.91,2,15.71,15.71,0,0,0-1.08,2.26,1.09,1.09,0,0,0,.62,1.42l5.42,2.1L57,53.07A1,1,0,0,1,56.52,55L38.16,50.42a5.41,5.41,0,0,1,.49,1.2l1.69,6.23a1.43,1.43,0,0,0,1.39,1.06H54a2.58,2.58,0,0,0,2.17-1.16l2.39-3.61a.73.73,0,0,0-.2-1Z"/><path class="cls-2" d="M58.21,58.22h4a.55.55,0,0,0,.55-.55V56.35A.54.54,0,0,0,62.6,56a6.73,6.73,0,0,1-4,1.58Z"/><path class="cls-2" d="M33.27,54.9l3.87-1.2-.42-1.55a3.68,3.68,0,0,0-2.17-2.44h0l-.74-.29-.52,5.47Z"/><path class="cls-3" d="M26.38,60.79a8.18,8.18,0,0,1-.75-1,.61.61,0,0,0-.38-.26h-.12a.56.56,0,0,0-.33.1.64.64,0,0,0-.26.38.61.61,0,0,0,.09.45,11,11,0,0,0,.85,1.12.7.7,0,0,0,.45.2.48.48,0,0,0,.39-.15A.6.6,0,0,0,26.38,60.79Z"/><path class="cls-3" d="M69.47,45.82l-.23,0,.09-.22a7,7,0,0,0,.38-1.27l0-.1.09,0a6.45,6.45,0,0,0,2.74-2.56l.7-1.23a5.53,5.53,0,0,1,1.53-1.7l.62-.45a1.41,1.41,0,0,0-.49-2.51L72.23,35a5.16,5.16,0,0,0-4.57,1.1l-1.07.93a9.31,9.31,0,0,1-4.73,2.17.64.64,0,0,0-.4.24.64.64,0,0,0-.11.44.64.64,0,0,0,.24.4.64.64,0,0,0,.44.11,10.57,10.57,0,0,0,5-2.17l.43-.34-.11.54c-.59,2.85-3.08,4.37-5.07,5.13l-.07,0H57l2.53-1.78a1.75,1.75,0,0,0-.88-3.19L47,37.72a3.49,3.49,0,0,0-1.63.27l0,0h-.06l-6.55-.92.4-1.45a1.51,1.51,0,0,0-.35-1.44,1.63,1.63,0,0,0-1.51-.45l-.16,0L37,33.62a2,2,0,0,0-3.75.78v.71l-.11.06a14.68,14.68,0,0,0-6.95,8,2.69,2.69,0,0,0,.38,2.62l.13.17-.19.12A9.38,9.38,0,0,0,23,50.13c-.35.71.39,1.68.52,1.8l.11.09-.06.13a9.69,9.69,0,0,0-.5,3.08,9.53,9.53,0,0,0,.52,3.14.65.65,0,0,0,.34.33.58.58,0,0,0,.42,0,.62.62,0,0,0,.38-.77,8.44,8.44,0,0,1,.08-5.72l0-.09.09,0,2.24-1,.7-.33-.45.63a6.42,6.42,0,0,0-1.25,3.82,6.52,6.52,0,0,0,11,4.68,6.89,6.89,0,0,0,1.22-1.62l.23-.42.13.46a3,3,0,0,0,.84,1.35l.12.12-.09.14a8.43,8.43,0,0,1-11.8,2.2.59.59,0,0,0-.93.59.56.56,0,0,0,.24.39A9.63,9.63,0,0,0,40.75,60.5l.07-.12.14,0a2.86,2.86,0,0,0,.77.1H54a4.23,4.23,0,0,0,2.27-.66l.05,0H59l.06.1a9.62,9.62,0,1,0,10.41-14.1Zm-4-2.59a8.29,8.29,0,0,0,1.17-1A7.07,7.07,0,0,0,68.67,37v-.11l.09-.06A4,4,0,0,1,72,36.19l2.76.68.14.2-.12.14-.65.47a6.74,6.74,0,0,0-1.86,2.08L71.52,41A5.24,5.24,0,0,1,67,43.6H64.94ZM67,44.79a6,6,0,0,0,1-.08l.35-.06-.13.33a12.67,12.67,0,0,1-4.5,5.22l-.2.15-.1-.24a5.13,5.13,0,0,0-8.58-1.46l-.12.13-1.38-.93a1,1,0,0,1-.45-.84,1,1,0,0,1,.43-.85c2-1.37,2-1.37,2-1.37ZM63.92,58.94a2.15,2.15,0,0,0,.42-1.27v-.49h.79l.06.07a3,3,0,0,0,2.27,1,3,3,0,0,0,3-3,3.36,3.36,0,0,0-.08-.71l0-.08,0-.07A1.66,1.66,0,0,0,69,51.91H63.42l.52-.36c.63-.45,1.23-.91,1.77-1.38l.07,0a5.71,5.71,0,0,1,1.68-.23A5.32,5.32,0,1,1,64,59.21l-.14-.12Zm-.54-4.37-.14-.1.08-.16a5.48,5.48,0,0,0,.38-1.05l0-.15H69a.45.45,0,0,1,.42.27.46.46,0,0,1-.08.51l-.71.78a4.1,4.1,0,0,1-3,1.31H64.31l0-.15A2,2,0,0,0,63.38,54.57Zm-4.17-2.78-3.45-2.33.17-.17a3.92,3.92,0,1,1,3.78,6.56l-.5.14.64-1A2.35,2.35,0,0,0,59.21,51.79ZM38,39.49l.34-1.24,5.49.77-2,1.65a.83.83,0,0,1-.51.18h-.1l-2.55-.35a.76.76,0,0,1-.55-.35A.75.75,0,0,1,38,39.49ZM34.42,34.4a.76.76,0,0,1,1.51,0v2.79a.76.76,0,0,1-1.51,0Zm-4.84,5.14a12.85,12.85,0,0,1,3.34-2.89l.31-.19v.36a3.06,3.06,0,0,0,.25,1.33l.1.14-.13.11a6,6,0,0,1-3.7,1.47l-.45,0ZM24.57,51l-.14,0a.38.38,0,0,1-.23-.09.32.32,0,0,1-.07-.36,7.18,7.18,0,0,1,3.63-3.86l.08,0L31.12,48Zm8.13,9.54A5.31,5.31,0,0,1,31.86,50l.26,0-.23,2.36-.12,0A3,3,0,1,0,35.65,56l0-.11,2.26-.72.07.3A5.29,5.29,0,0,1,32.7,60.54Zm.7-4,1,0-.89.43A1.84,1.84,0,0,1,31.38,54l.39-.41-.11,1.2a1.67,1.67,0,0,0,.61,1.42A1.71,1.71,0,0,0,33.4,56.51Zm-.55-1.66h0l.57-6,1.25.48A4.08,4.08,0,0,1,37.11,52L37.63,54l-4.21,1.33-.13,0a.44.44,0,0,1-.44-.46ZM54,59.31H41.73A1.85,1.85,0,0,1,40,58l-1.69-6.23a5.18,5.18,0,0,0-.68-1.52l-.29-.43L56.6,54.62a.6.6,0,0,0,.73-.43.57.57,0,0,0-.07-.46.61.61,0,0,0-.37-.27L33.57,47.62l-5.44-2.11a1.5,1.5,0,0,1-.85-1.94,15.58,15.58,0,0,1,1.17-2.43l.07-.1h.12a7.77,7.77,0,0,0,5.8-1.94l.08-.07.09,0a2.36,2.36,0,0,0,2-.58l.49-.55V35l.16,0,.24,0a.33.33,0,0,1,.38.41l-.7,2.53h0l-.37,1.33a2,2,0,0,0,1.65,2.51L41,42a2,2,0,0,0,1.53-.43l2.65-2.17a2.32,2.32,0,0,1,1.64-.51l11.71.9a.53.53,0,0,1,.5.41.52.52,0,0,1-.22.61l-6.18,4.33A2.25,2.25,0,0,0,51.73,47a2.2,2.2,0,0,0,1,1.82l5.83,3.94a1.16,1.16,0,0,1,.31,1.58L56.45,58A3,3,0,0,1,54,59.31Zm3.52-.69,1-1.45h.11a6.34,6.34,0,0,0,3.9-1.6l.11-.12.14.08a1,1,0,0,1,.46.81v1.32a1,1,0,0,1-1,.95Zm10,5a8.46,8.46,0,0,1-6.85-3.52l-.22-.31h1.8a1.89,1.89,0,0,0,.47-.06l.1,0,.08.08A6.52,6.52,0,0,0,74,55.23a6.48,6.48,0,0,0-6.31-6.51h-.42l.28-.32a12.24,12.24,0,0,0,1-1.39l.07-.11.13,0a8.42,8.42,0,0,1-1.31,16.74Z"/></svg>