<svg id="Layer_1" data-name="Layer 1" xmlns="http://www.w3.org/2000/svg" viewBox="0 0 100 100"><defs><style>.cls-1{fill:#142e52;stroke:#f9ad6e;stroke-miterlimit:10;stroke-width:4px;}.cls-2{fill:none;}.cls-3{fill:#fff;}</style></defs><title>icon</title><circle class="cls-1" cx="50" cy="50" r="46.72"/><path class="cls-2" d="M41.72,36.16A16.42,16.42,0,0,0,39.27,44l3.19-3.22Z"/><path class="cls-2" d="M47.57,56.41l-4.37-.84a16.42,16.42,0,0,0,6.59,4.7Z"/><path class="cls-2" d="M61.81,55.37l-3.24-5H53l-3.24,5,3.35,5.81a16.62,16.62,0,0,0,5.36,0Z"/><path class="cls-2" d="M50,41.36,54.56,38V33.15L49,29.76a16.62,16.62,0,0,0-5.29,3.77l1.07,6.68Z"/><path class="cls-2" d="M66.72,40.21l.81-7A16.5,16.5,0,0,0,62,29.52l-5,3.57V38l4.6,3.35Z"/><polygon class="cls-2" points="55.76 40.12 51.64 43.12 53.21 47.97 58.32 47.97 59.89 43.12 55.76 40.12"/><path class="cls-2" d="M52,28.76,55.73,31l3.33-2.39A16.64,16.64,0,0,0,52,28.76Z"/><path class="cls-2" d="M49.28,43.68l-5.15-1.15-4.71,4.75a16.24,16.24,0,0,0,1.83,5.46L47.77,54,51,49Z"/><path class="cls-2" d="M67.42,42.53l-5.14,1.15L60.55,49l3.25,5,6.5-1.22a16.47,16.47,0,0,0,1.83-5.42Z"/><path class="cls-2" d="M72.3,44.08a16.46,16.46,0,0,0-2.64-8.22l-.58,4.91Z"/><path class="cls-2" d="M68.35,55.6,64,56.42l-2.23,3.85A16.58,16.58,0,0,0,68.35,55.6Z"/><path class="cls-3" d="M69.24,32.25a18.67,18.67,0,0,0-7.13-4.72.43.43,0,0,0-.13-.05,18.53,18.53,0,0,0-13,.24l-.15.06A18.8,18.8,0,0,0,42,32.59l-.14.16a18.46,18.46,0,0,0-4.54,12.11,17.62,17.62,0,0,0,.12,2,18,18,0,0,0,.76,3.57l0,.14L28.1,60.78a.69.69,0,0,0,0,1,.72.72,0,0,0,1,0l9.7-9.69.15.33a17.77,17.77,0,0,0,.86,1.68,1.14,1.14,0,0,0,.09.16,18.51,18.51,0,0,0,10.57,8.28l.4.12-7,7a.73.73,0,0,0-.21.5.71.71,0,0,0,1.21.5L52.5,63l.13,0a18.45,18.45,0,0,0,19-8.73l.11-.17v0A18.38,18.38,0,0,0,74.11,47a20.14,20.14,0,0,0,.12-2.17,18.4,18.4,0,0,0-4.84-12.45A.79.79,0,0,0,69.24,32.25ZM62,29A16.93,16.93,0,0,1,68,33l.09.08-.89,7.57L61.5,41.9l-5-3.63V32.83L61.91,29ZM60.48,42.93l-1.8,5.54H52.85l-1.8-5.54,4.71-3.43ZM51.3,28.42a17.15,17.15,0,0,1,8.42-.14l.54.13-4.51,3.23-5-3.07Zm-8,4.86a17.14,17.14,0,0,1,5.66-4l.12-.05.11.07,5.88,3.6v5.4l-5,3.63-5.69-1.28-1.16-7.25Zm-4.55,12v-.62a17,17,0,0,1,2.9-9.29l.36-.52L43,41Zm2.13,7.84a17,17,0,0,1-2-5.87l0-.12L44,42l5.7,1.28,1.89,5.81L48,54.55l-7.08-1.36ZM50.27,61a17,17,0,0,1-7.9-5.63L42,54.83,47.89,56l3,5.23Zm8.39.67a17.23,17.23,0,0,1-2.88.25,17.41,17.41,0,0,1-2.88-.25l-.12,0-3.62-6.28,3.56-5.47h6.12l3.56,5.47-3.62,6.28Zm10.51-6.27A17,17,0,0,1,61.29,61l-.63.22,3-5.23,5.91-1.11Zm3.47-8.07a16.86,16.86,0,0,1-2,5.81l-.06.11-.12,0-6.94,1.3L60,49.07l1.89-5.81L67.59,42l5.07,5.21Zm.18-2.6v.62L68.56,41l.75-6.46.38.53A17,17,0,0,1,72.82,44.71Z"/><path class="cls-3" d="M39.86,60.78a.69.69,0,0,0-1,0L26,73.67a.7.7,0,0,0-.2.5.7.7,0,0,0,1.2.5l12.89-12.9A.69.69,0,0,0,39.86,60.78Z"/><path class="cls-3" d="M41.91,72.62a.69.69,0,0,0-.5-.21.67.67,0,0,0-.5.21.69.69,0,0,0,0,1,.73.73,0,0,0,1,0,.74.74,0,0,0,.2-.5A.7.7,0,0,0,41.91,72.62Z"/></svg>