<?xml version="1.0" encoding="utf-8"?>
<!-- Generator: Adobe Illustrator 23.0.4, SVG Export Plug-In . SVG Version: 6.00 Build 0)  -->
<svg version="1.1" id="Capa_1" xmlns="http://www.w3.org/2000/svg" xmlns:xlink="http://www.w3.org/1999/xlink" x="0px" y="0px"
	 viewBox="0 0 32 32" style="enable-background:new 0 0 32 32;" xml:space="preserve">
<style type="text/css">
	.st0{fill:#F2F2F2;}
</style>
<g>
	<g id="steering_x5F_wheel">
		<path class="st0" d="M16,0C7.2,0,0,7.2,0,16s7.2,16,16,16s16-7.2,16-16S24.8,0,16,0z M16,4c5.2,0,9.6,3.4,11.3,8H4.7
			C6.4,7.4,10.8,4,16,4z M16,18c-1.1,0-2-0.9-2-2s0.9-2,2-2s2,0.9,2,2S17.1,18,16,18z M4,16c5.5,0,9.9,5.3,10,11.8
			C8.3,26.8,4,21.9,4,16z M18,27.8C18.1,21.3,22.5,16,28,16C28,21.9,23.7,26.8,18,27.8z"/>
	</g>
</g>
</svg>
