<?xml version="1.0" encoding="utf-8"?>
<!-- Generator: Adobe Illustrator 23.0.6, SVG Export Plug-In . SVG Version: 6.00 Build 0)  -->
<svg version="1.1" id="Layer_1" xmlns="http://www.w3.org/2000/svg" xmlns:xlink="http://www.w3.org/1999/xlink" x="0px" y="0px"
	 viewBox="0 0 100 100" style="enable-background:new 0 0 100 100;" xml:space="preserve">
<style type="text/css">
	.st0{fill:#142E52;stroke:#F9AD6E;stroke-width:4;stroke-miterlimit:10;}
	.st1{fill:none;}
	.st2{fill:#FFFFFF;}
</style>
<title>net-work-icn</title>
<circle class="st0" cx="50" cy="50" r="46.7"/>
<path class="st1" d="M39.3,45l-0.1-0.3L39,43.8h-0.2v0.6C38.8,44.7,39,44.9,39.3,45z"/>
<path class="st1" d="M43,60.6c-1-1.7-1.8-3.5-2.5-5.4L37,56.4c-4,1.5-6.7,5.1-7.1,9.4h16.5l-0.8-1.4C44.6,63.1,43.8,61.9,43,60.6z"
	/>
<path class="st1" d="M49.2,63.5l0.3-0.5c0.7-0.9,1.3-1.9,1.9-2.9l-3-3l-2.9,3.1c0.6,1,1.2,1.9,1.9,2.8l0.1,0.1l1,1.6L49.2,63.5z"/>
<path class="st1" d="M53.5,51.8L50,55.4l2.7,2.6c0.7-1.4,1.3-2.8,1.8-4.2L53.5,51.8z"/>
<path class="st1" d="M46.7,30.2c0.3,0,0.6,0.1,0.8,0.3c2.2,2.2,5,3.6,8,4l0.8,0.1c0-0.1,0-0.3,0-0.5c0-1.9-0.7-3.7-2.1-5
	c-1.3-1.3-3.1-2.1-5-2.1h-1.6c-3.3,0-6.2,2.3-6.9,5.5C42.4,31.1,44.5,30.3,46.7,30.2z"/>
<path class="st1" d="M44.3,58l2.4-2.6l-3.4-3.4l-0.9,1.7C43,55.2,43.6,56.6,44.3,58z"/>
<path class="st1" d="M59.4,41.4c0.3,0,0.6-0.3,0.6-0.6c0,0,0,0,0,0v-4.5h-1.3c-0.1,1.7-0.2,3.5-0.4,5.2H59.4z"/>
<path class="st1" d="M60,56.4l-3.6-1.2c-1.2,3.3-2.9,6.4-5,9.2l-0.8,1.3h16.6C66.7,61.5,64,57.9,60,56.4z M58.4,59.4
	c-0.7,0-1.2-0.5-1.2-1.2s0.5-1.2,1.2-1.2s1.2,0.5,1.2,1.2C59.6,58.8,59.1,59.4,58.4,59.4C58.5,59.4,58.5,59.4,58.4,59.4L58.4,59.4z
	 M64.4,63.8c-0.2,0.1-0.3,0.1-0.5,0.1c-0.4,0-0.9-0.3-1.1-0.7c-0.5-0.9-1.2-1.8-2-2.4c-0.2-0.2-0.4-0.5-0.5-0.8c0-0.3,0-0.6,0.2-0.9
	c0.2-0.2,0.5-0.4,0.8-0.5c0.3,0,0.6,0,0.9,0.2c1.1,0.9,2.1,2,2.7,3.2l0,0C65.3,62.8,65,63.5,64.4,63.8
	C64.5,63.8,64.5,63.8,64.4,63.8L64.4,63.8z"/>
<path class="st1" d="M47.4,52.7l1,1l0.9-0.9C48.7,52.9,48,52.8,47.4,52.7z"/>
<path class="st1" d="M38.3,36.3L38.3,36.3H37v4.5c0,0.3,0.3,0.6,0.6,0.6c0,0,0,0,0,0h1.1C38.5,39.7,38.4,38,38.3,36.3z"/>
<path class="st1" d="M46.7,46.8h1.8c0.3,0,0.6-0.3,0.6-0.6s-0.3-0.6-0.6-0.6c0,0,0,0,0,0h-1.8c-0.3,0-0.6,0.3-0.6,0.6
	C46.1,46.5,46.3,46.8,46.7,46.8z"/>
<path class="st1" d="M47.7,24.8h1.6c5.1,0,9.2,4,9.4,9.1h1.2c-0.7-6.3-6.3-10.9-12.7-10.2c-5.4,0.6-9.6,4.8-10.2,10.2h1.2
	C38.5,28.8,42.6,24.8,47.7,24.8z"/>
<g>
	<path class="st2" d="M30.5,44.4h4.1l0,0.1c0.2,0.8,0.6,1.7,1,2.4l0.1,0.1l-2.9,2.9c-0.1,0.1-0.2,0.3-0.2,0.4s0.1,0.3,0.2,0.4
		l3.1,3.1c0.2,0.2,0.6,0.2,0.8,0l2.9-2.9l0.1,0.1c0.8,0.4,1.6,0.8,2.4,1l0.1,0v4.1c0,0.3,0.3,0.6,0.6,0.6h4.3c0.3,0,0.6-0.3,0.6-0.6
		V52l0.1,0c0.8-0.2,1.7-0.6,2.4-1l0.1-0.1l2.9,2.9c0.2,0.2,0.6,0.2,0.8,0l3.1-3.1c0.1-0.1,0.2-0.3,0.2-0.4s-0.1-0.3-0.2-0.4L54.3,47
		l0.1-0.1c0.4-0.8,0.8-1.6,1-2.4l0-0.1h4.1c0.3,0,0.6-0.3,0.6-0.6v-4.3c0-0.3-0.3-0.6-0.6-0.6h-4.1l0-0.1c-0.2-0.8-0.6-1.7-1-2.4
		l-0.1-0.1l2.9-2.9c0.1-0.1,0.2-0.3,0.2-0.4c0-0.2-0.1-0.3-0.2-0.4l-3.1-3.1c-0.2-0.2-0.6-0.2-0.8,0l-2.9,2.9l-0.1-0.1
		c-0.8-0.4-1.6-0.8-2.4-1l-0.1,0v-4.1c0-0.3-0.3-0.6-0.6-0.6h-4.3c-0.3,0-0.6,0.3-0.6,0.6v4.1l-0.1,0c-0.8,0.2-1.7,0.6-2.4,1
		l-0.1,0.1l-2.9-2.9c-0.2-0.2-0.6-0.2-0.8,0l-3.1,3.1c-0.1,0.1-0.2,0.3-0.2,0.4c0,0.2,0.1,0.3,0.2,0.4l2.9,2.9l-0.1,0.1
		c-0.4,0.8-0.8,1.6-1,2.4l0,0.1h-4.1c-0.3,0-0.6,0.3-0.6,0.6v4.3C29.9,44.1,30.2,44.4,30.5,44.4z M31.1,40h4c0.3,0,0.5-0.2,0.6-0.5
		c0.2-1.1,0.7-2.1,1.3-3.1c0.1-0.2,0.1-0.5-0.1-0.7L34,32.9l2.3-2.3l2.8,2.8c0.2,0.2,0.5,0.2,0.7,0.1c1-0.6,2-1,3.1-1.3
		c0.3-0.1,0.5-0.3,0.5-0.6v-4h3.2v4c0,0.3,0.2,0.5,0.5,0.6c1.1,0.2,2.1,0.7,3.1,1.3c0.2,0.1,0.5,0.1,0.7-0.1l2.8-2.8l2.3,2.3
		l-2.8,2.8c-0.2,0.2-0.2,0.5-0.1,0.7c0.6,1,1,2,1.3,3.1c0.1,0.3,0.3,0.5,0.6,0.5h4v3.2h-4c-0.3,0-0.5,0.2-0.6,0.5
		c-0.2,1.1-0.7,2.1-1.3,3.1c-0.1,0.2-0.1,0.5,0.1,0.7l2.8,2.8l-2.3,2.3l-2.8-2.8c-0.2-0.2-0.5-0.2-0.7-0.1c-1,0.6-2,1-3.1,1.3
		c-0.3,0.1-0.5,0.3-0.5,0.6v4h-3.2v-4c0-0.3-0.2-0.5-0.5-0.6c-1.1-0.2-2.1-0.7-3.1-1.3c-0.2-0.1-0.5-0.1-0.7,0.1l-2.8,2.8L34,50.3
		l2.8-2.8c0.2-0.2,0.2-0.5,0.1-0.7c-0.6-1-1-2-1.3-3.1c-0.1-0.3-0.3-0.5-0.6-0.5h-4V40z"/>
	<path class="st2" d="M39.3,41.6c0,3.1,2.5,5.6,5.6,5.6c3.1,0,5.6-2.5,5.6-5.6c0-3.1-2.5-5.6-5.6-5.6C41.9,36,39.3,38.5,39.3,41.6z
		 M45,37.2L45,37.2c2.5,0,4.5,2,4.5,4.5c0,2.5-2,4.5-4.5,4.5s-4.5-2-4.5-4.5C40.5,39.2,42.5,37.2,45,37.2z"/>
	<path class="st2" d="M37.2,41.6c0,4.3,3.5,7.8,7.8,7.8c4.3,0,7.8-3.5,7.8-7.8s-3.5-7.8-7.8-7.8S37.2,37.3,37.2,41.6z M45,35L45,35
		c3.7,0,6.7,3,6.7,6.7c0,3.7-3,6.7-6.7,6.7s-6.7-3-6.7-6.7C38.3,38,41.3,35,45,35z"/>
	<path class="st2" d="M71.1,59.9l-0.1,0V54c0-0.3-0.3-0.6-0.6-0.6h-1.6v-5.9c0-0.3-0.3-0.6-0.6-0.6h-6.5c-0.3,0-0.6,0.3-0.6,0.6v5.9
		h-3.8c-0.3,0-0.6,0.3-0.6,0.6v5.9H33.4c-1.9,0-3.5,1.6-3.5,3.5v1.4c0,1.9,1.6,3.5,3.5,3.5h37.7c1.9,0,3.5-1.6,3.5-3.5v-1.4
		C74.5,61.4,73,59.9,71.1,59.9z M69.8,54.5v5.4h-5.4v-5.4H69.8z M62.2,48h5.4v5.4h-5.4V48z M57.9,54.5h5.4v5.4h-5.4V54.5z
		 M73.4,64.8c0,1.3-1,2.3-2.3,2.3H33.4c-1.3,0-2.3-1-2.3-2.3v-1.4c0-1.3,1-2.3,2.3-2.3h37.7c1.3,0,2.3,1,2.3,2.3V64.8z"/>
	<path class="st2" d="M54.3,64.1c0-1.1-0.9-2-2-2c-1.1,0-2,0.9-2,2c0,1.1,0.9,2,2,2C53.3,66.1,54.3,65.2,54.3,64.1z M52.2,65
		c-0.5,0-0.9-0.4-0.9-0.9c0-0.5,0.4-0.9,0.9-0.9c0.5,0,0.9,0.4,0.9,0.9C53.1,64.6,52.7,65,52.2,65z"/>
	<path class="st2" d="M45,62.1c-1.1,0-2,0.9-2,2c0,1.1,0.9,2,2,2s2-0.9,2-2C47,63,46.1,62.1,45,62.1z M45,65c-0.5,0-0.9-0.4-0.9-0.9
		c0-0.5,0.4-0.9,0.9-0.9c0.5,0,0.9,0.4,0.9,0.9C45.9,64.6,45.5,65,45,65z"/>
	<path class="st2" d="M61.5,64.1c0-1.1-0.9-2-2-2c-1.1,0-2,0.9-2,2c0,1.1,0.9,2,2,2C60.6,66.1,61.5,65.2,61.5,64.1z M59.5,65
		c-0.5,0-0.9-0.4-0.9-0.9c0-0.5,0.4-0.9,0.9-0.9c0.5,0,0.9,0.4,0.9,0.9C60.3,64.6,59.9,65,59.5,65z"/>
	<path class="st2" d="M37.7,62.1c-1.1,0-2,0.9-2,2c0,1.1,0.9,2,2,2s2-0.9,2-2C39.8,63,38.9,62.1,37.7,62.1z M37.7,65
		c-0.5,0-0.9-0.4-0.9-0.9c0-0.5,0.4-0.9,0.9-0.9c0.5,0,0.9,0.4,0.9,0.9C38.6,64.6,38.2,65,37.7,65z"/>
	<path class="st2" d="M68.7,64.1c0-1.1-0.9-2-2-2c-1.1,0-2,0.9-2,2c0,1.1,0.9,2,2,2C67.8,66.1,68.7,65.2,68.7,64.1z M66.7,65
		c-0.5,0-0.9-0.4-0.9-0.9c0-0.5,0.4-0.9,0.9-0.9c0.5,0,0.9,0.4,0.9,0.9C67.6,64.6,67.2,65,66.7,65z"/>
</g>
</svg>
