<?xml version="1.0" encoding="utf-8"?>
<!-- Generator: Adobe Illustrator 23.0.6, SVG Export Plug-In . SVG Version: 6.00 Build 0)  -->
<svg version="1.1" id="Layer_1" xmlns="http://www.w3.org/2000/svg" xmlns:xlink="http://www.w3.org/1999/xlink" x="0px" y="0px"
	 viewBox="0 0 100 100" style="enable-background:new 0 0 100 100;" xml:space="preserve">
<style type="text/css">
	.st0{fill:#142E52;stroke:#F9AD6E;stroke-width:4;stroke-miterlimit:10;}
	.st1{fill:#FFFFFF;}
</style>
<title>net-work-icn</title>
<circle class="st0" cx="50" cy="50" r="46.7"/>
<g>
	<polygon class="st1" points="40.4,58.5 40.4,58.5 40.4,58.5 	"/>
	<path class="st1" d="M65.7,47.1c-0.3-0.8-1.1-1.4-1.9-1.4c0,0,0,0,0,0c-0.9,0-1.6,0.5-1.9,1.4l0,0.1h-4.9v-3.3H60h0
		c0.1,0,0.3-0.1,0.4-0.2c0.1-0.1,0.2-0.2,0.2-0.4v-3.2l0.1,0c1.1-0.4,1.6-1.5,1.2-2.6c-0.4-1.1-1.5-1.6-2.6-1.2
		c-0.5,0.2-0.9,0.6-1.2,1c-0.2,0.5-0.3,1-0.1,1.6c0.2,0.6,0.7,1,1.2,1.2l0.1,0v2.7h-2.6v-1.7c0-0.1-0.1-0.3-0.2-0.4
		c-0.1-0.1-0.2-0.2-0.4-0.2h-1.7v-4.2l0.1,0c1.1-0.4,1.6-1.5,1.2-2.6c-0.4-1.1-1.5-1.6-2.6-1.2c-1.1,0.4-1.6,1.5-1.2,2.6
		c0.2,0.6,0.7,1,1.2,1.2l0.1,0v4.2h-3.3v-12c0-0.3-0.2-0.6-0.6-0.6c-9.1,0-16.2,6.6-16.2,14.9c0,4,1.6,9.3,4.1,13.8
		c0.5,0.8,1.1,1.7,1.7,2.6l0,0c1.3,1.8,2.9,4.1,3,6.1l0,0.1l-0.1,0.1c-0.5,0.4-0.8,1-0.8,1.6c0,0.5,0.2,0.9,0.5,1.3l0.1,0.1
		l-0.1,0.1c-0.4,0.4-0.6,0.9-0.6,1.5c0,1.1,0.9,2,2,2h12.6c1.1,0,2.1-0.9,2-2.1l0,0c0-0.6-0.2-1.1-0.6-1.5l-0.1-0.1l0.1-0.1
		c0.3-0.4,0.5-0.8,0.5-1.3c0-0.5-0.2-1-0.6-1.4c-0.4-0.4-0.9-0.6-1.4-0.6c0,0-0.1,0-0.1,0l-5.6,0V50.5H52V53c0,0.1,0.1,0.3,0.2,0.4
		c0.1,0.1,0.2,0.2,0.4,0.2H55v1.2l-0.1,0c-0.5,0.2-0.9,0.6-1.2,1c-0.2,0.5-0.3,1-0.1,1.6s0.6,0.9,1,1.2c0.5,0.2,1,0.3,1.6,0.1
		c0.5-0.2,0.9-0.6,1.2-1c0.2-0.5,0.3-1,0.1-1.6c-0.2-0.6-0.7-1-1.2-1.2l-0.1,0V53c0-0.1-0.1-0.3-0.2-0.4s-0.2-0.2-0.4-0.2h-2.4v-1.9
		h3.2c0,0,0,0,0,0c0.1,0,0.3-0.1,0.4-0.2c0.1-0.1,0.2-0.2,0.2-0.4v-1.7h4.9l0,0.1c0.2,0.5,0.6,0.9,1,1.2c0.5,0.2,1,0.3,1.6,0.1
		C65.5,49.3,66,48.1,65.7,47.1z M59.1,38.1c0-0.5,0.4-0.9,0.9-0.9h0c0.5,0,0.9,0.4,0.9,0.9S60.5,39,60,39
		C59.5,39,59.1,38.6,59.1,38.1z M40.2,58.6l0.2-0.1L40.2,58.6c-0.6-0.9-1.2-1.7-1.6-2.5c-2.4-4.3-4-9.5-4-13.3c0-3.6,1.5-7,4.1-9.6
		c2.6-2.5,6.3-4,10.2-4.2l0.2,0v10l-0.2,0c-3.3,0.4-5.8,3.1-5.8,6.5c0,3.3,2.5,6.1,5.8,6.5l0.2,0l0,13h-5.6l0-0.2
		C43.1,62.7,41.6,60.5,40.2,58.6z M49.1,40.2v10.7l-0.2,0c-1.4-0.2-2.7-0.9-3.5-2.1c-0.9-1.1-1.2-2.6-1-4c0.3-2.3,2.2-4.2,4.6-4.6
		L49.1,40.2z M56.9,70.1c0,0.5-0.4,0.9-0.9,0.9H43.3c-0.3,0-0.5-0.1-0.7-0.3c-0.2-0.2-0.3-0.4-0.3-0.7l0,0c0-0.5,0.4-0.9,0.9-0.9
		h12.6c0.3,0,0.5,0.1,0.7,0.3C56.8,69.6,56.9,69.8,56.9,70.1C56.9,70.1,56.9,70.1,56.9,70.1z M55.7,66.2c0.2,0,0.4,0.1,0.6,0.2
		c0.2,0.1,0.3,0.4,0.3,0.6c0,0,0,0.1,0,0.1c0,0.5-0.4,0.9-0.9,0.9H43.5c-0.5,0-0.9-0.4-0.9-1l0,0c0-0.2,0.1-0.4,0.3-0.6
		c0.2-0.2,0.4-0.2,0.6-0.2c0,0,0,0,0,0H55.7z M55.6,55.7c0.5,0,0.9,0.4,0.9,0.9s-0.4,0.9-0.9,0.9c-0.5,0-0.9-0.4-0.9-0.9
		C54.6,56.2,55.1,55.7,55.6,55.7L55.6,55.7z M53.2,34.4c0-0.5,0.4-0.9,0.9-0.9h0c0.5,0,0.9,0.4,0.9,0.9c0,0.5-0.4,0.9-0.9,0.9
		S53.2,34.9,53.2,34.4z M55.8,49.4h-5.6v-7.8h5.6V49.4z M63.7,48.7L63.7,48.7c-0.5,0-0.9-0.4-0.9-0.9c0-0.5,0.4-0.9,0.9-0.9
		s0.9,0.4,0.9,0.9C64.7,48.3,64.3,48.7,63.7,48.7z"/>
	<path class="st1" d="M47.8,35.1l-0.3,1.2l-0.1,0c-0.2,0-0.4,0.1-0.5,0.1l-0.1,0L46,35.6c-0.2-0.2-0.4-0.2-0.6-0.1
		c-0.8,0.4-1.6,0.8-2.3,1.3c-0.2,0.1-0.3,0.4-0.2,0.6l0.4,1.2l-0.1,0.1c-0.1,0.1-0.3,0.3-0.4,0.4l-0.1,0.1l-1.1-0.4
		c-0.2-0.1-0.5,0-0.6,0.2c-0.5,0.7-1,1.5-1.3,2.3c-0.1,0.2,0,0.5,0.1,0.6l0.9,0.8l0,0.1c-0.1,0.2-0.1,0.4-0.1,0.5l0,0.1l-1.3,0.3
		c-0.3,0.1-0.4,0.3-0.4,0.5v2.5c0,0.3,0.2,0.5,0.4,0.5l1.3,0.3l0,0.1c0,0.2,0.1,0.4,0.1,0.5l0,0.1l-0.9,0.8
		c-0.2,0.2-0.2,0.4-0.1,0.6c0.4,0.8,0.8,1.6,1.3,2.3c0.1,0.2,0.4,0.3,0.6,0.2l1.1-0.4l0.1,0.1c0.1,0.1,0.3,0.3,0.4,0.4l0.1,0.1
		l-0.4,1.1c-0.1,0.2,0,0.5,0.2,0.6c0.7,0.5,1.5,1,2.3,1.3c0.2,0.1,0.5,0,0.6-0.1l0.8-0.9l0.1,0c0.2,0.1,0.4,0.1,0.5,0.1l0.1,0
		l0.3,1.2c0,0.2,0.2,0.4,0.5,0.4c0.2,0,0.4,0,0.6,0.1l0.2,0l-0.5-2.3c0-0.2-0.2-0.4-0.4-0.4c-0.4-0.1-0.9-0.2-1.3-0.4
		c-0.1,0-0.1,0-0.2,0c-0.2,0-0.3,0.1-0.4,0.2l-0.8,0.9l-0.1-0.1c-0.4-0.2-0.8-0.4-1.1-0.7L44,53.6l0.4-1.1c0.1-0.2,0-0.5-0.2-0.6
		c-0.3-0.3-0.7-0.6-1-1c-0.1-0.2-0.4-0.2-0.6-0.2l-1.1,0.4L41.5,51c-0.2-0.4-0.5-0.7-0.7-1.1l-0.1-0.1l0.9-0.8
		c0.2-0.2,0.2-0.4,0.2-0.6c-0.2-0.4-0.3-0.9-0.4-1.3c0-0.2-0.2-0.4-0.4-0.4l-1.2-0.2v-1.6l1.2-0.2c0.2,0,0.4-0.2,0.4-0.4
		c0.1-0.4,0.2-0.9,0.4-1.3c0.1-0.2,0-0.5-0.2-0.6l-0.9-0.8l0.1-0.1c0.2-0.4,0.4-0.8,0.7-1.1l0.1-0.1l1.1,0.4c0.2,0.1,0.5,0,0.6-0.2
		c0.3-0.3,0.6-0.7,1-1c0.2-0.1,0.2-0.4,0.2-0.6L44,37.4l0.1-0.1c0.4-0.2,0.7-0.5,1.1-0.7l0.1-0.1l0.8,0.9c0.2,0.2,0.4,0.2,0.6,0.2
		c0.4-0.2,0.9-0.3,1.3-0.4c0.2,0,0.4-0.2,0.4-0.4l0.5-2.3l-0.2,0c-0.2,0-0.4,0-0.6,0.1C48.1,34.7,47.9,34.9,47.8,35.1z"/>
	<path class="st1" d="M57.4,63.4c0.1-0.3,0.3-0.7,0.5-1l-1-0.5c-0.2,0.4-0.4,0.7-0.5,1.1L57.4,63.4z"/>
	<path class="st1" d="M58.8,60.9c0.2-0.3,0.4-0.7,0.6-0.9l-0.9-0.6c-0.3,0.4-0.5,0.7-0.7,1L58.8,60.9z"/>
	<path class="st1" d="M60.5,58.4c0.3-0.4,0.5-0.7,0.6-1l-0.9-0.6c-0.2,0.3-0.4,0.6-0.6,0.9L60.5,58.4z"/>
	<path class="st1" d="M62.1,55.8c0.2-0.3,0.4-0.7,0.5-1l-1-0.5c-0.2,0.3-0.3,0.7-0.5,1L62.1,55.8z"/>
	<path class="st1" d="M63.4,53c0.1-0.4,0.3-0.7,0.4-1.1l-1-0.4c-0.1,0.3-0.3,0.7-0.4,1L63.4,53z"/>
	<path class="st1" d="M65.7,44.1c0-0.4,0-0.8,0-1.2l-1.1,0c0,0.4,0,0.7,0,1.1L65.7,44.1z"/>
	<path class="st1" d="M65.7,40.9c-0.1-0.4-0.1-0.8-0.2-1.2L64.4,40c0.1,0.4,0.1,0.7,0.2,1.1L65.7,40.9z"/>
	<path class="st1" d="M64.9,37.9c-0.1-0.4-0.3-0.7-0.5-1.1l-1,0.5c0.2,0.3,0.3,0.7,0.4,1L64.9,37.9z"/>
	<path class="st1" d="M63.5,35.1c-0.2-0.3-0.5-0.7-0.7-1l-0.9,0.7c0.2,0.3,0.4,0.6,0.6,0.9L63.5,35.1z"/>
	<path class="st1" d="M60.7,33.4l0.8-0.8c-0.3-0.3-0.6-0.6-0.9-0.8l-0.7,0.9C60.2,32.9,60.5,33.2,60.7,33.4z"/>
	<path class="st1" d="M58.4,31.6l0.6-0.9c-0.3-0.2-0.7-0.4-1-0.6l-0.5,1C57.8,31.2,58.1,31.4,58.4,31.6z"/>
	<path class="st1" d="M55.9,30.2l0.4-1c-0.4-0.1-0.7-0.3-1.1-0.4l-0.3,1.1C55.2,30,55.5,30.1,55.9,30.2z"/>
	<path class="st1" d="M53.3,28.3c-0.4-0.1-0.8-0.1-1.2-0.2L52,29.2c0.4,0.1,0.7,0.1,1.1,0.2L53.3,28.3z"/>
	<rect x="29" y="68" class="st1" width="1.1" height="1.1"/>
	<rect x="29" y="71" class="st1" width="1.1" height="1.1"/>
	<rect x="30.5" y="69.5" class="st1" width="1.1" height="1.1"/>
	<rect x="27.5" y="69.5" class="st1" width="1.1" height="1.1"/>
	<rect x="69.9" y="27.9" class="st1" width="1.1" height="1.1"/>
	<rect x="69.9" y="30.9" class="st1" width="1.1" height="1.1"/>
	<rect x="71.4" y="29.4" class="st1" width="1.1" height="1.1"/>
	<rect x="68.4" y="29.4" class="st1" width="1.1" height="1.1"/>
</g>
</svg>
