<svg id="Layer_1" data-name="Layer 1" xmlns="http://www.w3.org/2000/svg" viewBox="0 0 100 100"><defs><style>.cls-1{fill:#142e52;stroke:#f9ad6e;stroke-miterlimit:10;stroke-width:4px;}.cls-2{fill:none;}.cls-3{fill:#fff;}</style></defs><title>net-work-icn</title><circle class="cls-1" cx="50" cy="50" r="46.7"/><path class="cls-2" d="M39.26,45l-.06-.31-.15-.92h-.24v.63A.63.63,0,0,0,39.26,45Z"/><path class="cls-2" d="M43,60.57a37.64,37.64,0,0,1-2.51-5.39L37,56.36a11.19,11.19,0,0,0-7.15,9.37H46.37l-.85-1.37A36.93,36.93,0,0,1,43,60.57Z"/><path class="cls-2" d="M49.22,63.5l.32-.5a33.27,33.27,0,0,0,1.93-2.86l-3-3-2.89,3.06c.59,1,1.23,1.94,1.91,2.85l.06.08,1,1.6Z"/><path class="cls-2" d="M53.45,51.77,50,55.38,52.66,58a36.38,36.38,0,0,0,1.8-4.22Z"/><path class="cls-2" d="M46.68,30.25a1.2,1.2,0,0,1,.84.34,14.2,14.2,0,0,0,8,4l.82.12c0-.14,0-.29,0-.45a7.08,7.08,0,0,0-2.07-5,7,7,0,0,0-5-2.09H47.68a7,7,0,0,0-6.87,5.47A8.53,8.53,0,0,1,46.68,30.25Z"/><path class="cls-2" d="M46.78,50.24a7.11,7.11,0,0,0,3.43,0,7.47,7.47,0,0,0,5.25-6l.12-.75c.09-.49.14-.79.19-1.18v0c.24-1.64.42-3.43.51-5.22l-1.08-.15a16.75,16.75,0,0,1-9-4.32A6.11,6.11,0,0,0,41.83,35l-1.15,1.55a53.56,53.56,0,0,0,1,8.42h2.25a3,3,0,0,1,2.74-1.81h1.81a3,3,0,0,1,0,6H46.68a3,3,0,0,1-2.74-1.81H42.78A7,7,0,0,0,46.78,50.24Z"/><path class="cls-2" d="M44.33,58l2.42-2.56-3.36-3.36-.86,1.72A33,33,0,0,0,44.33,58Z"/><path class="cls-2" d="M59.36,41.38a.63.63,0,0,0,.63-.63V36.23h-1.3c-.06,1.72-.2,3.48-.4,5.15Z"/><path class="cls-2" d="M60,56.36l-3.56-1.18a36.22,36.22,0,0,1-5,9.2l-.84,1.35H67.16A11.18,11.18,0,0,0,60,56.36Zm-1.57,3a1.18,1.18,0,1,1,1.18-1.18A1.18,1.18,0,0,1,58.45,59.4Zm6,4.4a1.2,1.2,0,0,1-.52.12,1.19,1.19,0,0,1-1.06-.65,6.8,6.8,0,0,0-2-2.39,1.16,1.16,0,0,1-.45-.78,1.14,1.14,0,0,1,.24-.87,1.16,1.16,0,0,1,.78-.45,1.18,1.18,0,0,1,.87.23A9.33,9.33,0,0,1,65,62.22h0A1.18,1.18,0,0,1,64.46,63.8Z"/><path class="cls-2" d="M47.4,52.74l1,1,.88-.93A8.81,8.81,0,0,1,47.4,52.74Z"/><path class="cls-2" d="M38.3,36.26v0H37v4.52a.63.63,0,0,0,.63.63H38.7C38.5,39.71,38.36,38,38.3,36.26Z"/><path class="cls-2" d="M46.68,46.81h1.81a.63.63,0,1,0,0-1.26H46.68a.63.63,0,0,0,0,1.26Z"/><path class="cls-2" d="M47.68,24.81H49.3a9.48,9.48,0,0,1,9.42,9.06h1.21a11.5,11.5,0,0,0-22.87,0h1.21A9.48,9.48,0,0,1,47.68,24.81Z"/><circle class="cls-3" cx="58.45" cy="58.22" r="0.63"/><path class="cls-3" d="M60.59,54.65l-4.41-1.47L54.5,49.81l.14-.14a9.58,9.58,0,0,0,2.6-5.1l.24-1.38h1.88a2.45,2.45,0,0,0,2.44-2.44v-5.7a13.31,13.31,0,1,0-26.61,0v5.7a2.46,2.46,0,0,0,1.63,2.3l.18.06v1.26a2.45,2.45,0,0,0,2.44,2.44h1l.08.16A9.56,9.56,0,0,0,42,49.25l.39.42.14.14-1.68,3.37L36.4,54.65C31.5,56.28,28,61.44,28,66.91a.63.63,0,0,0,.63.63H68.41a.64.64,0,0,0,.63-.63A13,13,0,0,0,60.59,54.65Zm-5.54-.91,0,.11a34.07,34.07,0,0,1-2,4.73l-.17.34-3.53-3.53,4.32-4.57Zm-6.67.76-2.62-2.62.9.19a9,9,0,0,0,3.27.07l.8-.13ZM60.54,40.75a1.18,1.18,0,0,1-1.18,1.18h-1.7l0-.31c.23-1.78.38-3.69.44-5.52l0-.42h2.38Zm-24-6.63a12,12,0,0,1,24,0l0,.3H58.18v-.28a8.91,8.91,0,0,0-8.87-8.78H47.68a8.93,8.93,0,0,0-8.87,8.78v.28H36.47Zm1.14,7.81a1.18,1.18,0,0,1-1.18-1.18V35.68h2.38l0,.55c.06,1.79.21,3.65.44,5.39l0,.31Zm1.81,3.62a1.18,1.18,0,0,1-1.18-1.18V43.19h1.25l.23,1.38c0,.22.08.43.13.64l.09.34Zm.67-12.08a7.61,7.61,0,0,1,7.57-6.85H49.3a7.65,7.65,0,0,1,7.62,7.65c0,.29,0,.54,0,.76v.31l-1.44-.19A14.84,14.84,0,0,1,47.13,31a.63.63,0,0,0-.45-.18,8,8,0,0,0-6.08,2.87l-.58.71ZM42,47.23l-.25-.42h2.53l.06.18a2.44,2.44,0,0,0,2.3,1.63h1.81a2.44,2.44,0,0,0,0-4.88H46.68a2.43,2.43,0,0,0-2.3,1.63l-.06.18h-3l-.06-.2a52.76,52.76,0,0,1-1.1-8.85v-.1l1.27-1.7a6.63,6.63,0,0,1,4.92-2.63h.12l.09.08a16,16,0,0,0,8.76,4.25l1.58.23v.25c-.09,1.9-.27,3.82-.53,5.56v0c-.06.39-.11.68-.18,1.14l-.13.75a8,8,0,0,1-5.66,6.4A7.41,7.41,0,0,1,42,47.23Zm3.46-1A1.18,1.18,0,0,1,46.68,45h1.81a1.18,1.18,0,0,1,0,2.36H46.68A1.18,1.18,0,0,1,45.5,46.18Zm-2.26,5,4.27,4.27-3.32,3.51L44,58.58A34.65,34.65,0,0,1,42,53.85l0-.11Zm-14,15.14,0-.3a11.76,11.76,0,0,1,7.54-10.14l4.07-1.35.09.25a36.06,36.06,0,0,0,5,9.31l1.39,2.23ZM47,63.37A36,36,0,0,1,45,60.25l-.11-.17,3.57-3.77,3.75,3.75-.11.18A36.86,36.86,0,0,1,50,63.33a3.43,3.43,0,0,0-.3.46l-1.2,1.93Zm20.73,2.91H49.63L51,64.07a35.43,35.43,0,0,0,2.49-3.8A36.33,36.33,0,0,0,56,54.74l.09-.25,4.06,1.35A11.75,11.75,0,0,1,67.74,66Z"/><path class="cls-3" d="M62,59.45a.63.63,0,0,0-.39-.13h-.08a.62.62,0,0,0-.42.24.64.64,0,0,0,.12.89A7.37,7.37,0,0,1,63.37,63a.64.64,0,0,0,.85.28.63.63,0,0,0,.28-.85A8.83,8.83,0,0,0,62,59.45Z"/></svg>