<svg id="Layer_1" data-name="Layer 1" xmlns="http://www.w3.org/2000/svg" viewBox="0 0 100 100"><defs><style>.cls-1{fill:#142e52;stroke:#f9ad6e;stroke-miterlimit:10;stroke-width:4px;}.cls-2{fill:#fff;}</style></defs><title>net-work-icn</title><circle class="cls-1" cx="50" cy="50" r="46.7"/><path class="cls-2" d="M63.34,58.34a.66.66,0,0,1-.47-.19l-8-7.5a.69.69,0,1,1,1-1l8,7.5a.69.69,0,0,1,0,1A.68.68,0,0,1,63.34,58.34Z"/><path class="cls-2" d="M36.66,58.34a.68.68,0,0,1-.51-.22.69.69,0,0,1,0-1l8-7.5a.69.69,0,0,1,1,1l-8,7.5A.66.66,0,0,1,36.66,58.34Z"/><path class="cls-2" d="M68.07,65.32H31.93a3.47,3.47,0,0,1-3.47-3.48V38.16a3.47,3.47,0,0,1,3.47-3.48H68.07a3.47,3.47,0,0,1,3.47,3.48V61.84A3.47,3.47,0,0,1,68.07,65.32ZM31.93,36.07a2.09,2.09,0,0,0-2.08,2.09V61.84a2.09,2.09,0,0,0,2.08,2.09H68.07a2.09,2.09,0,0,0,2.08-2.09V38.16a2.09,2.09,0,0,0-2.08-2.09Z"/><path class="cls-2" d="M50,53.49a3.9,3.9,0,0,1-2.55-.92L29.61,37a.69.69,0,0,1,.91-1L48.36,51.52a2.59,2.59,0,0,0,3.28,0L69.45,36a.69.69,0,1,1,.92,1L52.55,52.57A3.9,3.9,0,0,1,50,53.49Z"/></svg>