<svg xmlns="http://www.w3.org/2000/svg" viewBox="0 0 97.44 97.44"><defs><style>.cls-1{fill:#142e52;stroke:#f9ad6e;stroke-miterlimit:10;stroke-width:4px;}.cls-2{fill:#fff;}</style></defs><title>Enviornment safety icon</title><g id="Layer_2" data-name="Layer 2"><g id="Layer_1-2" data-name="Layer 1"><circle class="cls-1" cx="48.72" cy="48.72" r="46.72"/><path class="cls-2" d="M73.07,45.71a2.95,2.95,0,0,0-5,1.43l-2,9.57h0a3,3,0,0,0-3-.1l-5.35,2.79A7.78,7.78,0,0,0,53.87,64l-2.78,8.64a1,1,0,0,0,.64,1.24,1,1,0,0,0,.3,0A1,1,0,0,0,53,73.2l2.78-8.65a5.86,5.86,0,0,1,2.88-3.41L64,58.34a1.06,1.06,0,0,1,1.53.81v.23l0,.19a1.17,1.17,0,0,1-.26.44l-5.39,5.37a1,1,0,0,0,1.39,1.39l5.38-5.37a3.05,3.05,0,0,0,.86-1.69L70,47.54a1,1,0,0,1,1-.79,1,1,0,0,1,.72.31,1,1,0,0,1,.27.74l-.64,10.78A8.8,8.8,0,0,1,69,63.93l-1.37,1.51a1,1,0,0,0,1.45,1.32l1.37-1.51a10.74,10.74,0,0,0,2.76-6.55l.64-10.78A3,3,0,0,0,73.07,45.71Z"/><path class="cls-2" d="M66.55,68.17a1,1,0,0,0-.69-.28,1,1,0,0,0-1,1,1,1,0,0,0,1,1,1,1,0,0,0,1-1A1,1,0,0,0,66.55,68.17Z"/><path class="cls-2" d="M64.33,70.55a1,1,0,0,0-1.39.07l-1.46,1.61a1,1,0,0,0,.06,1.39,1,1,0,0,0,.66.26,1,1,0,0,0,.73-.32l1.47-1.62A1,1,0,0,0,64.33,70.55Z"/><path class="cls-2" d="M46.34,72.59,43.57,64a7.82,7.82,0,0,0-3.84-4.56L34.37,56.6a3,3,0,0,0-3,.1h0l-2-9.57a3,3,0,0,0-5.85.78l.65,10.78A10.73,10.73,0,0,0,27,65.25l7.54,8.31a1,1,0,0,0,.73.32A1,1,0,0,0,36,72.23l-7.54-8.3a8.8,8.8,0,0,1-2.25-5.35L25.52,47.8a1,1,0,0,1,1-1,1,1,0,0,1,1,.79L30,59.71a3,3,0,0,0,.85,1.69l5.39,5.37a1,1,0,1,0,1.38-1.39L32.24,60a1.05,1.05,0,0,1-.26-.44l0-.19a.88.88,0,0,1,0-.23,1.06,1.06,0,0,1,.49-.77,1.05,1.05,0,0,1,1,0l5.36,2.8a5.81,5.81,0,0,1,2.87,3.41l2.78,8.65a1,1,0,0,0,.94.68,1,1,0,0,0,.3,0A1,1,0,0,0,46.34,72.59Z"/><path class="cls-2" d="M33.17,27.23a1,1,0,0,0-1.39,0h0a1,1,0,0,0,0,1.39,1,1,0,0,0,.7.29,1,1,0,0,0,.69-.3h0A1,1,0,0,0,33.17,27.23Z"/><path class="cls-2" d="M57,23.56a12,12,0,0,0-8.27,3.28A12,12,0,0,0,34.84,25a1,1,0,0,0,.91,1.74,9.92,9.92,0,0,1,4.7-1.17A10.1,10.1,0,0,1,48,28.9a1,1,0,0,0,1.46,0A10.1,10.1,0,0,1,57,25.52a10.63,10.63,0,0,1,10.4,10.84c0,10.17-15.57,21.31-18.67,23.43-3.11-2.12-18.67-13.26-18.67-23.43a11.25,11.25,0,0,1,1.21-5.08A1,1,0,0,0,30.83,30a1,1,0,0,0-1.32.43,13.1,13.1,0,0,0-1.43,6,17.69,17.69,0,0,0,3.23,9.4,45.61,45.61,0,0,0,6.9,8.09,76,76,0,0,0,10,7.95,1,1,0,0,0,.53.16,1,1,0,0,0,.53-.16,75.57,75.57,0,0,0,10-7.95,45.29,45.29,0,0,0,6.91-8.09,17.69,17.69,0,0,0,3.23-9.4A12.6,12.6,0,0,0,57,23.56Z"/><path class="cls-2" d="M55.6,39.28h0l-6.07-7.82a1,1,0,0,0-.77-.38h0a1,1,0,0,0-.88.55l-6,7.6,0,.05a8.84,8.84,0,1,0,13.76,0Zm-7.86,1.48L47,40a1,1,0,0,0-1.39,1.39l2.16,2.15v2.9l-2.52-2.52a1,1,0,0,0-1.39,1.39l3.91,3.91v2.43a6.88,6.88,0,0,1-4.33-11.19.27.27,0,0,0,.07-.08l4.26-5.44v5.82Zm2,10.89V49.23l3.92-3.92a1,1,0,0,0,0-1.39,1,1,0,0,0-1.39,0L49.7,46.45V43.56l2.17-2.17A1,1,0,0,0,50.48,40l-.78.78V34.89L54,40.46l0,0A6.87,6.87,0,0,1,49.7,51.65Z"/></g></g></svg>