<?xml version="1.0" encoding="utf-8"?>
<!-- Generator: Adobe Illustrator 23.0.6, SVG Export Plug-In . SVG Version: 6.00 Build 0)  -->
<svg version="1.1" id="Layer_1" xmlns="http://www.w3.org/2000/svg" xmlns:xlink="http://www.w3.org/1999/xlink" x="0px" y="0px"
	 viewBox="0 0 100 100" style="enable-background:new 0 0 100 100;" xml:space="preserve">
<style type="text/css">
	.st0{fill:#142E52;stroke:#F9AD6E;stroke-width:4;stroke-miterlimit:10;}
	.st1{fill:#FFFFFF;}
</style>
<title>net-work-icn</title>
<circle class="st0" cx="50" cy="50" r="46.7"/>
<g>
	<path class="st1" d="M37.4,71.2c0-0.2,0-0.4-0.1-0.5L36,68.9c-0.1-0.1-0.3-0.2-0.4-0.3c0,0-0.1,0-0.1,0c-0.1,0-0.3,0-0.4,0.1
		c-0.1,0.1-0.2,0.3-0.3,0.4s0,0.4,0.1,0.5l1.3,1.8c0.1,0.2,0.3,0.3,0.6,0.3c0.1,0,0.3,0,0.4-0.1C37.3,71.6,37.4,71.4,37.4,71.2z"/>
	<path class="st1" d="M47.2,71l-1.4-6.7c-0.7-3.2-2.5-6-5.3-7.8l-3-2c-1.1-0.8-2.7-0.6-3.6,0.4l-0.3,0.3V44.3c0-1.3-0.9-2.4-2.1-2.6
		c-0.8-0.2-1.6,0-2.3,0.5c-0.6,0.5-1,1.3-1,2.1v13.3c0,1.7,0.5,3.3,1.5,4.7l1.5,2.2c0.1,0.2,0.3,0.3,0.6,0.3c0.1,0,0.3,0,0.4-0.1
		c0.1-0.1,0.2-0.3,0.3-0.4s0-0.4-0.1-0.5l-1.5-2.2c-0.8-1.2-1.3-2.5-1.3-3.9V44.3c0-0.4,0.2-0.8,0.5-1c0.3-0.3,0.7-0.3,1.1-0.3
		c0.6,0.1,1,0.7,1,1.3v10.6c0,1.4,0.5,2.8,1.5,3.9c0.1,0.1,0.1,0.1,0.1,0.1c0.6,0.6,1.2,1.3,1.9,2l2.1,2.2c0.1,0.1,0.1,0.2,0.1,0.2
		c0.1,0.1,0.3,0.2,0.5,0.2c0.2,0,0.4-0.1,0.5-0.2c0.1-0.1,0.2-0.3,0.2-0.5c0-0.2-0.1-0.4-0.2-0.5c0,0-1-1.1-2.2-2.3l-2-2.1
		c-0.5-0.6-0.5-1.5,0-2.1c0.3-0.3,0.7-0.5,1.1-0.5c0.3,0,0.6,0.1,0.8,0.2l3,2c2.4,1.6,4.1,4.1,4.7,7l1.4,6.7
		c0.1,0.3,0.3,0.5,0.7,0.5c0,0,0.1,0,0.1,0c0.2,0,0.3-0.1,0.4-0.3C47.2,71.3,47.2,71.2,47.2,71z"/>
	<path class="st1" d="M34.2,66.4L34.2,66.4c-0.1-0.2-0.4-0.3-0.6-0.3c-0.1,0-0.3,0-0.4,0.1c-0.3,0.2-0.4,0.6-0.2,1l0,0
		c0.1,0.2,0.3,0.3,0.6,0.3c0.1,0,0.3,0,0.4-0.1C34.4,67.1,34.5,66.7,34.2,66.4z"/>
	<path class="st1" d="M70.8,42.2c-0.6-0.5-1.5-0.7-2.3-0.5c-1.2,0.3-2.1,1.4-2.1,2.6v10.8l-0.3-0.3c-0.6-0.6-1.3-0.9-2-0.9
		c-0.5,0-1.1,0.2-1.6,0.5l-3,2c-2.7,1.8-4.6,4.6-5.3,7.8L52.8,71c0,0.2,0,0.4,0.1,0.5c0.1,0.2,0.3,0.3,0.4,0.3c0,0,0.1,0,0.1,0
		c0.3,0,0.6-0.2,0.7-0.5l1.4-6.7c0.6-2.9,2.3-5.3,4.7-7l3-2c0.6-0.4,1.4-0.3,1.9,0.2c0.5,0.6,0.6,1.5,0,2.1l0,0
		c-0.2,0.2-4.1,4.4-4.1,4.4c-0.3,0.3-0.2,0.7,0,1c0.1,0.1,0.3,0.2,0.5,0.2c0.2,0,0.4-0.1,0.5-0.2l0.2-0.2c0.8-0.8,3.4-3.6,3.9-4.1
		c0,0,0.1-0.1,0.1-0.1c1-1.1,1.5-2.5,1.5-3.9V44.3c0-0.6,0.4-1.2,1-1.3c0.4-0.1,0.8,0,1.1,0.3c0.3,0.3,0.5,0.6,0.5,1v13.3
		c0,1.4-0.4,2.8-1.3,3.9l-6.5,9.1c-0.1,0.1-0.1,0.3-0.1,0.5c0,0.2,0.1,0.3,0.3,0.4c0.1,0.1,0.3,0.1,0.4,0.1c0.2,0,0.4-0.1,0.6-0.3
		l6.5-9.1c1-1.4,1.5-3,1.5-4.7V44.3C71.8,43.5,71.4,42.7,70.8,42.2z"/>
	<path class="st1" d="M53.1,55h5.2c0.4,0,0.7-0.3,0.7-0.7v-3.1c0-0.1,0-0.2,0-0.3l0-0.2h4.1c0.4,0,0.7-0.3,0.7-0.7v-1.6
		c0-1.8-1.2-3.3-3-3.8l-1.7-0.4v-0.5l0.1-0.1c1-0.7,1.6-1.8,1.6-3v-2c0-2-1.6-3.7-3.7-3.7c-0.9,0-1.7,0.3-2.4,0.9l-0.2,0.2l-0.1-0.2
		c-0.7-1.8-2.5-3-4.5-3c-2,0-3.7,1.2-4.5,3l-0.1,0.2l-0.2-0.2c-0.7-0.6-1.5-0.9-2.4-0.9c-2,0-3.7,1.6-3.7,3.7v2c0,1.2,0.6,2.3,1.6,3
		l0.1,0.1v0.5l-1.7,0.4c-1.7,0.4-3,2-3,3.8V50c0,0.4,0.3,0.7,0.7,0.7H41l0,0.2c0,0.1,0,0.2,0,0.3v3.1c0,0.4,0.3,0.7,0.7,0.7h5.2
		c0.4,0,0.7-0.3,0.7-0.7s-0.3-0.7-0.7-0.7h-1.1v-1.9c0-0.4-0.3-0.7-0.7-0.7c-0.4,0-0.7,0.3-0.7,0.7v1.9h-2v-2.4
		c0-1.7,1.2-3.2,2.9-3.6l2.5-0.6l1.6,3.7c0.1,0.2,0.4,0.4,0.6,0.4c0.3,0,0.5-0.2,0.6-0.4l1.6-3.7l2.5,0.6c1.7,0.4,2.9,1.9,2.9,3.6
		v2.4h-2v-1.9c0-0.4-0.3-0.7-0.7-0.7c-0.4,0-0.7,0.3-0.7,0.7v1.9h-1.1c-0.4,0-0.7,0.3-0.7,0.7S52.7,55,53.1,55z M55,37.8
		c0.4-0.8,1.2-1.4,2.1-1.4c1.2,0,2.2,0.9,2.3,2.1l0,0.2h-1.4c-1,0-2-0.2-3-0.7L55,37.9L55,37.8z M54.9,40.5
		C54.9,40.5,54.9,40.5,54.9,40.5l0-1.1l0.2,0.1c1,0.4,2,0.6,3,0.6h1.4v0.6c0,1.3-1,2.3-2.3,2.3c-1.3,0-2.3-1-2.3-2.3L54.9,40.5z
		 M46.5,37.7c0-1.9,1.6-3.5,3.5-3.5c1.7,0,3.2,1.2,3.4,2.9l0.1,0.4l-1.8-1c-0.3-0.2-0.7-0.1-0.9,0.2c-0.7,0.9-1.8,1.4-3,1.4h-1.3
		V37.7z M40.6,38.5c0.1-1.2,1.1-2.1,2.3-2.1c0.9,0,1.7,0.5,2.1,1.4l0.1,0.1L44.9,38c-0.9,0.5-1.9,0.7-3,0.7h-1.4L40.6,38.5z
		 M40.6,40.7v-0.6h1.4c1,0,2-0.2,3-0.6l0.2-0.1v1.3c0,1.3-1,2.3-2.3,2.3C41.6,43,40.6,42,40.6,40.7z M44.9,46.2
		c-1.6,0.4-2.9,1.5-3.5,3l0,0.1h-3.8v-0.9c0-1.2,0.8-2.2,1.9-2.4l2.2-0.5c0.3-0.1,0.5-0.3,0.5-0.7v-0.5l0.2,0c0.2,0,0.3,0,0.5,0
		c0.1,0,0.3,0,0.5,0l0.2,0v0.4c0,0,0,0,0,0c0,0.2,0.1,0.4,0.3,0.6c0.1,0,0.2,0.1,0.2,0.1l2,0.5L44.9,46.2z M47.5,45l-0.2-0.1
		c-0.2-0.1-0.4-0.2-0.7-0.2l-1.7-0.4v-0.5l0.1-0.1c0.3-0.2,0.5-0.4,0.7-0.6l0.1-0.2l0.1,0.2c0.4,0.6,0.9,1.1,1.4,1.4l0.1,0.1V45z
		 M51.2,46L50,48.7L48.8,46v-0.9l0.2,0c0.6,0.1,1.3,0.1,1.9,0l0.2,0V46z M50,43.9c-0.9,0-1.8-0.4-2.5-1c-0.7-0.7-1-1.5-1-2.5v-1.1
		h1.3c1.3,0,2.6-0.5,3.5-1.4l0.1-0.1l2,1.2v1.5C53.4,42.4,51.9,43.9,50,43.9z M52.8,44.9L52.6,45v-0.4l0.1-0.1
		c0.6-0.4,1.1-0.9,1.4-1.4l0.1-0.2l0.1,0.2c0.2,0.2,0.4,0.5,0.7,0.6l0.1,0.1v0.5l-1.7,0.4C53.2,44.7,53,44.8,52.8,44.9z M55.1,46.2
		l-1.1-0.3l2-0.5c0.1,0,0.2,0,0.2-0.1c0.2-0.1,0.3-0.3,0.3-0.6l0-0.5l0.2,0c0.3,0,0.6,0,0.9,0l0.2,0v0.5c0,0.3,0.2,0.6,0.5,0.7
		l2.2,0.5c1.1,0.3,1.9,1.3,1.9,2.4v0.9h-3.8l0-0.1C58,47.7,56.7,46.6,55.1,46.2z"/>
	<path class="st1" d="M50.5,53.8c-0.1-0.1-0.3-0.2-0.5-0.2c-0.2,0-0.4,0.1-0.5,0.2c-0.1,0.1-0.2,0.3-0.2,0.5c0,0.2,0.1,0.4,0.2,0.5
		c0.1,0.1,0.3,0.2,0.5,0.2c0.2,0,0.4-0.1,0.5-0.2c0.1-0.1,0.2-0.3,0.2-0.5C50.7,54.1,50.6,53.9,50.5,53.8z"/>
	<path class="st1" d="M50,30.8c0.4,0,0.7-0.3,0.7-0.7v-1.3c0-0.4-0.3-0.7-0.7-0.7s-0.7,0.3-0.7,0.7v1.3C49.3,30.5,49.6,30.8,50,30.8
		z"/>
	<path class="st1" d="M44.6,30.5c0,0.2,0.1,0.4,0.2,0.5l0.9,0.9c0.1,0.1,0.3,0.2,0.5,0.2c0.2,0,0.4-0.1,0.5-0.2c0.3-0.3,0.3-0.7,0-1
		L45.8,30c-0.1-0.1-0.3-0.2-0.5-0.2c-0.2,0-0.4,0.1-0.5,0.2C44.7,30.2,44.6,30.3,44.6,30.5z"/>
	<path class="st1" d="M53.3,31c-0.3,0.3-0.3,0.7,0,1c0.1,0.1,0.3,0.2,0.5,0.2c0.2,0,0.4-0.1,0.5-0.2l0.9-0.9
		c0.1-0.1,0.2-0.3,0.2-0.5c0-0.2-0.1-0.4-0.2-0.5h0c-0.1-0.1-0.3-0.2-0.5-0.2c0,0,0,0,0,0c-0.2,0-0.4,0.1-0.5,0.2L53.3,31z"/>
</g>
</svg>
