<svg xmlns="http://www.w3.org/2000/svg" viewBox="0 0 97.44 97.44"><defs><style>.cls-1{fill:#142e52;stroke:#f9ad6e;stroke-miterlimit:10;stroke-width:4px;}.cls-2{fill:#fff;}</style></defs><title>Quality icon</title><g id="Layer_2" data-name="Layer 2"><g id="Layer_1-2" data-name="Layer 1"><circle class="cls-1" cx="48.72" cy="48.72" r="46.72"/><path class="cls-2" d="M70.84,69.57,63.77,52.49a.85.85,0,0,0-1.58.65l6.4,15.44-5.84-1.69a.85.85,0,0,0-1,.41l-2.93,5.32L52,56.05a17.19,17.19,0,1,0-17-6.62L26.59,69.57a.85.85,0,0,0,.16.89.84.84,0,0,0,.87.25l6.88-2L38,75a.85.85,0,0,0,.74.45h0a.83.83,0,0,0,.74-.52L46.1,59a.85.85,0,0,0-1.57-.65L38.6,72.62,35.67,67.3a.87.87,0,0,0-1-.41l-5.83,1.69L36.17,50.9a17.13,17.13,0,0,0,12.55,5.46c.51,0,1,0,1.51-.07l7.71,18.62a.85.85,0,0,0,.74.52h0a.85.85,0,0,0,.75-.45l3.45-6.27,6.89,2a.84.84,0,0,0,.87-.25.83.83,0,0,0,.15-.89ZM33.24,39.18A15.48,15.48,0,1,1,48.72,54.66,15.49,15.49,0,0,1,33.24,39.18Z"/><path class="cls-2" d="M58.57,36a.88.88,0,0,0-.67-.58l-5.74-1-2.69-5.16a.84.84,0,0,0-.75-.46.86.86,0,0,0-.76.46l-2.69,5.16-5.73,1a.83.83,0,0,0-.67.58.85.85,0,0,0,.2.86L43.14,41l-.85,5.76a.83.83,0,0,0,.34.81.85.85,0,0,0,.88.08L48.72,45l5.21,2.6a.85.85,0,0,0,.38.09.86.86,0,0,0,.5-.17.85.85,0,0,0,.34-.81L54.29,41l4.08-4.15A.85.85,0,0,0,58.57,36ZM52.78,40.1a.84.84,0,0,0-.24.72l.68,4.56L49.1,43.33a.85.85,0,0,0-.76,0l-4.13,2.05.68-4.56a.84.84,0,0,0-.23-.72l-3.23-3.29L46,36.05a.83.83,0,0,0,.62-.45l2.13-4.08,2.13,4.08a.83.83,0,0,0,.61.45l4.54.76L52.78,40.1Z"/><path class="cls-2" d="M61.63,40a.85.85,0,0,0-1,.73,12.06,12.06,0,1,1,0-3.18.85.85,0,0,0,1.69-.23,13.77,13.77,0,1,0,0,3.64.86.86,0,0,0-.74-1Z"/></g></g></svg>