<svg xmlns="http://www.w3.org/2000/svg" viewBox="0 0 97.44 97.44"><defs><style>.cls-1{fill:#142e52;stroke:#f9ad6e;stroke-miterlimit:10;stroke-width:4px;}.cls-2{fill:#fff;}</style></defs><title>Robust manufacturing icon</title><g id="Layer_2" data-name="Layer 2"><g id="Layer_1-2" data-name="Layer 1"><circle class="cls-1" cx="48.72" cy="48.72" r="46.72"/><path class="cls-2" d="M24.15,45.44h4.54a12.3,12.3,0,0,0,1.16,2.78l-3.22,3.21a.84.84,0,0,0-.24.58.83.83,0,0,0,.24.58l3.47,3.48a.84.84,0,0,0,1.16,0l3.22-3.22A12,12,0,0,0,37.25,54v4.55a.82.82,0,0,0,.82.81H43a.81.81,0,0,0,.81-.81V54a12.26,12.26,0,0,0,2.78-1.15l3.21,3.22a.86.86,0,0,0,1.16,0l3.48-3.48a.83.83,0,0,0,.24-.58.84.84,0,0,0-.24-.58l-3.22-3.21a11.82,11.82,0,0,0,1.15-2.78h4.55a.82.82,0,0,0,.82-.82V39.71a.82.82,0,0,0-.82-.82H52.36a11.58,11.58,0,0,0-1.15-2.77l3.22-3.22a.83.83,0,0,0,.24-.58.84.84,0,0,0-.24-.58L51,28.27a.82.82,0,0,0-1.16,0l-3.21,3.21a12.74,12.74,0,0,0-2.78-1.15V25.79A.81.81,0,0,0,43,25H38.07a.82.82,0,0,0-.82.82v4.54a12.46,12.46,0,0,0-2.77,1.15l-3.22-3.21a.84.84,0,0,0-1.16,0l-3.47,3.47a.84.84,0,0,0-.24.58.83.83,0,0,0,.24.58l3.22,3.22a12,12,0,0,0-1.16,2.77H24.15a.82.82,0,0,0-.82.82v4.91A.82.82,0,0,0,24.15,45.44ZM25,40.53h4.36a.81.81,0,0,0,.8-.65,10.67,10.67,0,0,1,1.44-3.45.82.82,0,0,0-.11-1l-3.09-3.09L30.68,30l3.09,3.1a.85.85,0,0,0,1,.11,10.49,10.49,0,0,1,3.45-1.44.82.82,0,0,0,.64-.8V26.61h3.28V31a.81.81,0,0,0,.64.8,10.49,10.49,0,0,1,3.45,1.44.83.83,0,0,0,1-.11L50.37,30l2.32,2.32L49.6,35.41a.82.82,0,0,0-.11,1,10.61,10.61,0,0,1,1.43,3.46.83.83,0,0,0,.8.64h4.37v3.28H51.72a.82.82,0,0,0-.8.64,10.56,10.56,0,0,1-1.43,3.45.82.82,0,0,0,.11,1L52.69,52l-2.32,2.32-3.09-3.09a.8.8,0,0,0-1-.11,10.47,10.47,0,0,1-3.45,1.43.81.81,0,0,0-.64.8v4.37H38.89V53.36a.82.82,0,0,0-.64-.8,10.47,10.47,0,0,1-3.45-1.43.82.82,0,0,0-1,.11l-3.09,3.09L28.37,52l3.09-3.09a.82.82,0,0,0,.11-1,10.67,10.67,0,0,1-1.44-3.45.81.81,0,0,0-.8-.65H25Z"/><path class="cls-2" d="M40.53,48.72A6.56,6.56,0,1,0,34,42.17,6.55,6.55,0,0,0,40.53,48.72Zm0-11.47a4.92,4.92,0,1,1-4.92,4.92A4.91,4.91,0,0,1,40.53,37.25Z"/><path class="cls-2" d="M40.53,51.17a9,9,0,1,0-9-9A9,9,0,0,0,40.53,51.17Zm0-16.37a7.37,7.37,0,1,1-7.37,7.37A7.37,7.37,0,0,1,40.53,34.8Z"/><path class="cls-2" d="M70,62.64V56.09a.82.82,0,0,0-.82-.82H67.55V48.72a.82.82,0,0,0-.81-.82H59.36a.82.82,0,0,0-.81.82v6.55h-4.1a.82.82,0,0,0-.82.82v6.55H27.42a4.09,4.09,0,0,0-4.09,4.1v1.63a4.1,4.1,0,0,0,4.09,4.1H70a4.11,4.11,0,0,0,4.1-4.1V66.74A4.11,4.11,0,0,0,70,62.64Zm-1.64,0H62.64V56.91h5.73Zm-8.19-13.1h5.74v5.73H60.18Zm-4.91,7.37H61v5.73H55.27Zm17.2,11.46A2.46,2.46,0,0,1,70,70.83H27.42A2.46,2.46,0,0,1,25,68.37V66.74a2.46,2.46,0,0,1,2.45-2.46H70a2.46,2.46,0,0,1,2.46,2.46Z"/><path class="cls-2" d="M48.72,65.1a2.46,2.46,0,1,0,2.45,2.45A2.46,2.46,0,0,0,48.72,65.1Zm0,3.27a.82.82,0,1,1,.82-.82A.82.82,0,0,1,48.72,68.37Z"/><path class="cls-2" d="M40.53,65.1A2.46,2.46,0,1,0,43,67.55,2.46,2.46,0,0,0,40.53,65.1Zm0,3.27a.82.82,0,1,1,.82-.82A.82.82,0,0,1,40.53,68.37Z"/><path class="cls-2" d="M56.91,65.1a2.46,2.46,0,1,0,2.45,2.45A2.46,2.46,0,0,0,56.91,65.1Zm0,3.27a.82.82,0,1,1,.82-.82A.82.82,0,0,1,56.91,68.37Z"/><path class="cls-2" d="M32.34,65.1a2.46,2.46,0,1,0,2.46,2.45A2.46,2.46,0,0,0,32.34,65.1Zm0,3.27a.82.82,0,1,1,.82-.82A.82.82,0,0,1,32.34,68.37Z"/><path class="cls-2" d="M65.1,65.1a2.46,2.46,0,1,0,2.45,2.45A2.46,2.46,0,0,0,65.1,65.1Zm0,3.27a.82.82,0,1,1,.82-.82A.82.82,0,0,1,65.1,68.37Z"/></g></g></svg>